M48
; DRILL file {KiCad 6.0.9-8da3e8f707~116~ubuntu20.04.1} date pet 23 dec 2022 11:26:59
; FORMAT={-:-/ absolute / metric / decimal}
; #@! TF.CreationDate,2022-12-23T11:26:59+01:00
; #@! TF.GenerationSoftware,Kicad,Pcbnew,6.0.9-8da3e8f707~116~ubuntu20.04.1
; #@! TF.FileFunction,Plated,1,2,PTH
FMAT,2
METRIC
; #@! TA.AperFunction,Plated,PTH,ComponentDrill
T1C1.000
%
G90
G05
T1
X114.3Y-96.52
X114.3Y-99.06
X116.84Y-96.52
X116.84Y-99.06
X119.38Y-96.52
X119.38Y-99.06
X121.92Y-96.52
X121.92Y-99.06
X124.46Y-96.52
X124.46Y-99.06
X125.08Y-85.16
X125.08Y-87.7
X127.0Y-96.52
X127.0Y-99.06
X127.62Y-85.16
X127.62Y-87.7
X129.54Y-96.52
X129.54Y-99.06
X130.16Y-85.16
X130.16Y-87.7
X132.08Y-96.52
X132.08Y-99.06
X132.7Y-85.16
X132.7Y-87.7
X134.62Y-96.52
X134.62Y-99.06
X135.24Y-85.16
X135.24Y-87.7
X137.78Y-85.16
X137.78Y-87.7
X144.78Y-71.12
X144.78Y-73.66
X144.78Y-85.16
X144.78Y-87.7
X144.78Y-96.52
X144.78Y-99.06
X147.32Y-71.12
X147.32Y-73.66
X147.32Y-85.16
X147.32Y-87.7
X147.32Y-96.52
X147.32Y-99.06
X149.86Y-71.12
X149.86Y-73.66
X149.86Y-85.16
X149.86Y-87.7
X149.86Y-96.52
X149.86Y-99.06
X152.4Y-71.12
X152.4Y-73.66
X152.4Y-85.16
X152.4Y-87.7
X152.4Y-96.52
X152.4Y-99.06
X154.94Y-71.12
X154.94Y-73.66
X154.94Y-85.16
X154.94Y-87.7
X154.94Y-96.52
X154.94Y-99.06
X157.48Y-71.12
X157.48Y-73.66
X157.48Y-85.16
X157.48Y-87.7
X157.48Y-96.52
X157.48Y-99.06
T0
M30
