G04 #@! TF.GenerationSoftware,KiCad,Pcbnew,6.0.9-8da3e8f707~116~ubuntu20.04.1*
G04 #@! TF.CreationDate,2022-12-23T11:26:32+01:00*
G04 #@! TF.ProjectId,z_pmod,7a5f706d-6f64-42e6-9b69-6361645f7063,rev?*
G04 #@! TF.SameCoordinates,Original*
G04 #@! TF.FileFunction,Soldermask,Bot*
G04 #@! TF.FilePolarity,Negative*
%FSLAX46Y46*%
G04 Gerber Fmt 4.6, Leading zero omitted, Abs format (unit mm)*
G04 Created by KiCad (PCBNEW 6.0.9-8da3e8f707~116~ubuntu20.04.1) date 2022-12-23 11:26:32*
%MOMM*%
%LPD*%
G01*
G04 APERTURE LIST*
%ADD10C,2.500000*%
%ADD11R,1.700000X1.700000*%
%ADD12O,1.700000X1.700000*%
G04 APERTURE END LIST*
D10*
X139700000Y-104140000D03*
D11*
X144780000Y-96520000D03*
D12*
X144780000Y-99060000D03*
X147320000Y-96520000D03*
X147320000Y-99060000D03*
X149860000Y-96520000D03*
X149860000Y-99060000D03*
X152400000Y-96520000D03*
X152400000Y-99060000D03*
X154940000Y-96520000D03*
X154940000Y-99060000D03*
X157480000Y-96520000D03*
X157480000Y-99060000D03*
D11*
X114300000Y-96520000D03*
D12*
X114300000Y-99060000D03*
X116840000Y-96520000D03*
X116840000Y-99060000D03*
X119380000Y-96520000D03*
X119380000Y-99060000D03*
X121920000Y-96520000D03*
X121920000Y-99060000D03*
X124460000Y-96520000D03*
X124460000Y-99060000D03*
X127000000Y-96520000D03*
X127000000Y-99060000D03*
X129540000Y-96520000D03*
X129540000Y-99060000D03*
X132080000Y-96520000D03*
X132080000Y-99060000D03*
X134620000Y-96520000D03*
X134620000Y-99060000D03*
D11*
X125080000Y-87700000D03*
D12*
X125080000Y-85160000D03*
X127620000Y-87700000D03*
X127620000Y-85160000D03*
X130160000Y-87700000D03*
X130160000Y-85160000D03*
X132700000Y-87700000D03*
X132700000Y-85160000D03*
X135240000Y-87700000D03*
X135240000Y-85160000D03*
X137780000Y-87700000D03*
X137780000Y-85160000D03*
D11*
X144780000Y-73660000D03*
D12*
X144780000Y-71120000D03*
X147320000Y-73660000D03*
X147320000Y-71120000D03*
X149860000Y-73660000D03*
X149860000Y-71120000D03*
X152400000Y-73660000D03*
X152400000Y-71120000D03*
X154940000Y-73660000D03*
X154940000Y-71120000D03*
X157480000Y-73660000D03*
X157480000Y-71120000D03*
D11*
X144780000Y-87700000D03*
D12*
X144780000Y-85160000D03*
X147320000Y-87700000D03*
X147320000Y-85160000D03*
X149860000Y-87700000D03*
X149860000Y-85160000D03*
X152400000Y-87700000D03*
X152400000Y-85160000D03*
X154940000Y-87700000D03*
X154940000Y-85160000D03*
X157480000Y-87700000D03*
X157480000Y-85160000D03*
M02*
