G04 #@! TF.GenerationSoftware,KiCad,Pcbnew,6.0.9-8da3e8f707~116~ubuntu20.04.1*
G04 #@! TF.CreationDate,2022-12-23T11:26:31+01:00*
G04 #@! TF.ProjectId,z_pmod,7a5f706d-6f64-42e6-9b69-6361645f7063,rev?*
G04 #@! TF.SameCoordinates,Original*
G04 #@! TF.FileFunction,Copper,L2,Bot*
G04 #@! TF.FilePolarity,Positive*
%FSLAX46Y46*%
G04 Gerber Fmt 4.6, Leading zero omitted, Abs format (unit mm)*
G04 Created by KiCad (PCBNEW 6.0.9-8da3e8f707~116~ubuntu20.04.1) date 2022-12-23 11:26:31*
%MOMM*%
%LPD*%
G01*
G04 APERTURE LIST*
G04 #@! TA.AperFunction,ComponentPad*
%ADD10R,1.700000X1.700000*%
G04 #@! TD*
G04 #@! TA.AperFunction,ComponentPad*
%ADD11O,1.700000X1.700000*%
G04 #@! TD*
G04 #@! TA.AperFunction,Conductor*
%ADD12C,0.750000*%
G04 #@! TD*
G04 #@! TA.AperFunction,Conductor*
%ADD13C,0.250000*%
G04 #@! TD*
G04 APERTURE END LIST*
D10*
X144780000Y-96520000D03*
D11*
X144780000Y-99060000D03*
X147320000Y-96520000D03*
X147320000Y-99060000D03*
X149860000Y-96520000D03*
X149860000Y-99060000D03*
X152400000Y-96520000D03*
X152400000Y-99060000D03*
X154940000Y-96520000D03*
X154940000Y-99060000D03*
X157480000Y-96520000D03*
X157480000Y-99060000D03*
D10*
X114300000Y-96520000D03*
D11*
X114300000Y-99060000D03*
X116840000Y-96520000D03*
X116840000Y-99060000D03*
X119380000Y-96520000D03*
X119380000Y-99060000D03*
X121920000Y-96520000D03*
X121920000Y-99060000D03*
X124460000Y-96520000D03*
X124460000Y-99060000D03*
X127000000Y-96520000D03*
X127000000Y-99060000D03*
X129540000Y-96520000D03*
X129540000Y-99060000D03*
X132080000Y-96520000D03*
X132080000Y-99060000D03*
X134620000Y-96520000D03*
X134620000Y-99060000D03*
D10*
X125080000Y-87700000D03*
D11*
X125080000Y-85160000D03*
X127620000Y-87700000D03*
X127620000Y-85160000D03*
X130160000Y-87700000D03*
X130160000Y-85160000D03*
X132700000Y-87700000D03*
X132700000Y-85160000D03*
X135240000Y-87700000D03*
X135240000Y-85160000D03*
X137780000Y-87700000D03*
X137780000Y-85160000D03*
D10*
X144780000Y-73660000D03*
D11*
X144780000Y-71120000D03*
X147320000Y-73660000D03*
X147320000Y-71120000D03*
X149860000Y-73660000D03*
X149860000Y-71120000D03*
X152400000Y-73660000D03*
X152400000Y-71120000D03*
X154940000Y-73660000D03*
X154940000Y-71120000D03*
X157480000Y-73660000D03*
X157480000Y-71120000D03*
D10*
X144780000Y-87700000D03*
D11*
X144780000Y-85160000D03*
X147320000Y-87700000D03*
X147320000Y-85160000D03*
X149860000Y-87700000D03*
X149860000Y-85160000D03*
X152400000Y-87700000D03*
X152400000Y-85160000D03*
X154940000Y-87700000D03*
X154940000Y-85160000D03*
X157480000Y-87700000D03*
X157480000Y-85160000D03*
D12*
X137160000Y-99060000D02*
X144780000Y-99060000D01*
X137780000Y-87700000D02*
X137780000Y-89520000D01*
X112776000Y-98044000D02*
X112776000Y-100076000D01*
X137780000Y-89520000D02*
X139700000Y-91440000D01*
X113665000Y-100965000D02*
X135255000Y-100965000D01*
X114300000Y-96520000D02*
X112776000Y-98044000D01*
X142240000Y-91440000D02*
X144780000Y-93980000D01*
X139700000Y-91440000D02*
X142240000Y-91440000D01*
X144780000Y-93980000D02*
X144780000Y-96520000D01*
X137780000Y-87700000D02*
X137780000Y-85160000D01*
X144780000Y-96520000D02*
X144780000Y-99060000D01*
X135255000Y-100965000D02*
X137160000Y-99060000D01*
X112776000Y-100076000D02*
X113665000Y-100965000D01*
D13*
X118745000Y-80899000D02*
X118745000Y-89535000D01*
X118745000Y-89535000D02*
X116840000Y-91440000D01*
X121412000Y-78232000D02*
X118745000Y-80899000D01*
X116840000Y-91440000D02*
X116840000Y-96520000D01*
X142113000Y-78232000D02*
X121412000Y-78232000D01*
X144780000Y-73660000D02*
X144780000Y-75565000D01*
X144780000Y-75565000D02*
X142113000Y-78232000D01*
X141605000Y-77470000D02*
X143510000Y-75565000D01*
X118110000Y-80518000D02*
X121158000Y-77470000D01*
X143510000Y-72390000D02*
X144780000Y-71120000D01*
X143510000Y-75565000D02*
X143510000Y-72390000D01*
X116840000Y-99060000D02*
X115570000Y-97790000D01*
X121158000Y-77470000D02*
X141605000Y-77470000D01*
X115570000Y-91440000D02*
X118110000Y-88900000D01*
X118110000Y-88900000D02*
X118110000Y-80518000D01*
X115570000Y-97790000D02*
X115570000Y-91440000D01*
X147320000Y-73660000D02*
X147320000Y-75563604D01*
X121920000Y-79756000D02*
X120015000Y-81661000D01*
X119380000Y-91440000D02*
X119380000Y-96520000D01*
X143127604Y-79756000D02*
X121920000Y-79756000D01*
X120015000Y-90805000D02*
X119380000Y-91440000D01*
X120015000Y-81661000D02*
X120015000Y-90805000D01*
X147320000Y-75563604D02*
X143127604Y-79756000D01*
X147320000Y-71120000D02*
X146050000Y-72390000D01*
X119380000Y-90170000D02*
X118110000Y-91440000D01*
X142621000Y-78994000D02*
X121666000Y-78994000D01*
X121666000Y-78994000D02*
X119380000Y-81280000D01*
X146050000Y-75565000D02*
X142621000Y-78994000D01*
X119380000Y-81280000D02*
X119380000Y-90170000D01*
X118110000Y-97790000D02*
X119380000Y-99060000D01*
X118110000Y-91440000D02*
X118110000Y-97790000D01*
X146050000Y-72390000D02*
X146050000Y-75565000D01*
X121285000Y-82423000D02*
X121285000Y-90805000D01*
X144145000Y-81280000D02*
X122428000Y-81280000D01*
X149860000Y-75565000D02*
X144145000Y-81280000D01*
X121285000Y-90805000D02*
X121920000Y-91440000D01*
X121920000Y-91440000D02*
X121920000Y-96520000D01*
X122428000Y-81280000D02*
X121285000Y-82423000D01*
X149860000Y-73660000D02*
X149860000Y-75565000D01*
X120650000Y-97790000D02*
X120650000Y-82042000D01*
X122174000Y-80518000D02*
X143637000Y-80518000D01*
X148590000Y-75565000D02*
X148590000Y-72390000D01*
X120650000Y-82042000D02*
X122174000Y-80518000D01*
X121920000Y-99060000D02*
X120650000Y-97790000D01*
X148590000Y-72390000D02*
X149860000Y-71120000D01*
X143637000Y-80518000D02*
X148590000Y-75565000D01*
X122555000Y-83185000D02*
X122936000Y-82804000D01*
X122555000Y-89535000D02*
X122555000Y-83185000D01*
X124460000Y-96520000D02*
X124460000Y-91440000D01*
X124460000Y-91440000D02*
X122555000Y-89535000D01*
X152400000Y-75565000D02*
X152400000Y-73660000D01*
X145161000Y-82804000D02*
X152400000Y-75565000D01*
X122936000Y-82804000D02*
X145161000Y-82804000D01*
X151130000Y-75565000D02*
X151130000Y-72390000D01*
X122682000Y-82042000D02*
X144653000Y-82042000D01*
X121920000Y-82804000D02*
X122682000Y-82042000D01*
X123190000Y-91440000D02*
X121920000Y-90170000D01*
X151130000Y-72390000D02*
X152400000Y-71120000D01*
X144653000Y-82042000D02*
X151130000Y-75565000D01*
X123190000Y-97790000D02*
X123190000Y-91440000D01*
X121920000Y-90170000D02*
X121920000Y-82804000D01*
X124460000Y-99060000D02*
X123190000Y-97790000D01*
X149860000Y-94615000D02*
X149860000Y-96520000D01*
X144780000Y-87700000D02*
X144780000Y-89535000D01*
X144780000Y-89535000D02*
X149860000Y-94615000D01*
X146050000Y-89535000D02*
X151130000Y-94615000D01*
X151130000Y-94615000D02*
X151130000Y-97790000D01*
X144780000Y-85160000D02*
X145980000Y-86360000D01*
X145980000Y-86360000D02*
X146050000Y-86360000D01*
X146050000Y-86360000D02*
X146050000Y-89535000D01*
X151130000Y-97790000D02*
X149860000Y-99060000D01*
X147320000Y-87700000D02*
X147320000Y-89536041D01*
X147320000Y-89536041D02*
X152400000Y-94616041D01*
X152400000Y-94616041D02*
X152400000Y-96520000D01*
X153670000Y-97790000D02*
X152400000Y-99060000D01*
X153670000Y-94615000D02*
X153670000Y-97790000D01*
X148590000Y-89535000D02*
X153670000Y-94615000D01*
X147320000Y-85160000D02*
X148590000Y-86430000D01*
X148590000Y-86430000D02*
X148590000Y-89535000D01*
X154940000Y-94615000D02*
X154940000Y-96520000D01*
X149860000Y-89535000D02*
X154940000Y-94615000D01*
X149860000Y-87700000D02*
X149860000Y-89535000D01*
X156210000Y-94615000D02*
X156210000Y-97790000D01*
X149860000Y-85160000D02*
X151130000Y-86430000D01*
X151130000Y-86430000D02*
X151130000Y-89535000D01*
X151130000Y-89535000D02*
X156210000Y-94615000D01*
X156210000Y-97790000D02*
X154940000Y-99060000D01*
X152400000Y-87700000D02*
X152400000Y-89535000D01*
X157480000Y-94615000D02*
X157480000Y-96520000D01*
X152400000Y-89535000D02*
X157480000Y-94615000D01*
X152400000Y-85160000D02*
X153670000Y-86430000D01*
X158750000Y-94615000D02*
X158750000Y-97790000D01*
X158750000Y-97790000D02*
X157480000Y-99060000D01*
X153670000Y-89535000D02*
X158750000Y-94615000D01*
X153670000Y-86430000D02*
X153670000Y-89535000D01*
X127000000Y-91440000D02*
X127000000Y-96520000D01*
X125080000Y-89520000D02*
X127000000Y-91440000D01*
X125080000Y-87700000D02*
X125080000Y-89520000D01*
X126365000Y-89535000D02*
X126365000Y-86360000D01*
X126365000Y-86360000D02*
X126280000Y-86360000D01*
X128270000Y-91440000D02*
X126365000Y-89535000D01*
X128270000Y-97790000D02*
X128270000Y-91440000D01*
X127000000Y-99060000D02*
X128270000Y-97790000D01*
X126280000Y-86360000D02*
X125080000Y-85160000D01*
X129540000Y-91440000D02*
X129540000Y-96520000D01*
X127620000Y-87700000D02*
X127620000Y-89520000D01*
X127620000Y-89520000D02*
X129540000Y-91440000D01*
X130810000Y-91440000D02*
X130810000Y-97790000D01*
X128905000Y-89535000D02*
X130810000Y-91440000D01*
X128820000Y-86360000D02*
X128905000Y-86360000D01*
X127620000Y-85160000D02*
X128820000Y-86360000D01*
X130810000Y-97790000D02*
X129540000Y-99060000D01*
X128905000Y-86360000D02*
X128905000Y-89535000D01*
X130160000Y-89520000D02*
X132080000Y-91440000D01*
X132080000Y-91440000D02*
X132080000Y-96520000D01*
X130160000Y-87700000D02*
X130160000Y-89520000D01*
X131445000Y-86445000D02*
X131445000Y-89535000D01*
X131445000Y-89535000D02*
X133350000Y-91440000D01*
X133350000Y-91440000D02*
X133350000Y-97790000D01*
X133350000Y-97790000D02*
X132080000Y-99060000D01*
X130160000Y-85160000D02*
X131445000Y-86445000D01*
X132700000Y-89520000D02*
X134620000Y-91440000D01*
X134620000Y-91440000D02*
X134620000Y-96520000D01*
X132700000Y-87700000D02*
X132700000Y-89520000D01*
X134620000Y-99060000D02*
X135890000Y-97790000D01*
X135890000Y-97790000D02*
X135890000Y-91440000D01*
X135890000Y-91440000D02*
X133985000Y-89535000D01*
X133900000Y-86360000D02*
X132700000Y-85160000D01*
X133985000Y-86360000D02*
X133900000Y-86360000D01*
X133985000Y-89535000D02*
X133985000Y-86360000D01*
G04 #@! TA.AperFunction,Conductor*
G36*
X121255018Y-69090000D02*
G01*
X121269853Y-69092310D01*
X121269855Y-69092310D01*
X121278724Y-69093691D01*
X121284508Y-69092935D01*
X121350868Y-69113307D01*
X121396700Y-69167528D01*
X121405165Y-69208873D01*
X121406309Y-69208723D01*
X121406309Y-69208724D01*
X121406329Y-69208873D01*
X121410436Y-69240283D01*
X121411500Y-69256621D01*
X121411500Y-74753633D01*
X121410000Y-74773018D01*
X121407690Y-74787851D01*
X121407690Y-74787855D01*
X121406309Y-74796724D01*
X121407137Y-74803054D01*
X121412337Y-74862491D01*
X121424091Y-74996844D01*
X121424092Y-74996849D01*
X121424571Y-75002325D01*
X121476357Y-75195594D01*
X121478680Y-75200575D01*
X121478680Y-75200576D01*
X121558591Y-75371947D01*
X121558594Y-75371952D01*
X121560917Y-75376934D01*
X121564074Y-75381442D01*
X121671684Y-75535125D01*
X121675682Y-75540835D01*
X121817165Y-75682318D01*
X121821673Y-75685475D01*
X121821676Y-75685477D01*
X121825074Y-75687856D01*
X121981066Y-75797083D01*
X121986048Y-75799406D01*
X121986053Y-75799409D01*
X122157424Y-75879320D01*
X122162406Y-75881643D01*
X122167714Y-75883065D01*
X122167716Y-75883066D01*
X122350360Y-75932005D01*
X122350362Y-75932005D01*
X122355675Y-75933429D01*
X122515102Y-75947377D01*
X122525015Y-75948643D01*
X122530204Y-75949516D01*
X122537656Y-75950770D01*
X122537659Y-75950770D01*
X122542448Y-75951576D01*
X122548724Y-75951652D01*
X122550140Y-75951670D01*
X122550143Y-75951670D01*
X122555000Y-75951729D01*
X122582624Y-75947773D01*
X122600486Y-75946500D01*
X140281750Y-75946500D01*
X140302655Y-75948246D01*
X140317656Y-75950770D01*
X140317659Y-75950770D01*
X140322448Y-75951576D01*
X140328687Y-75951652D01*
X140330140Y-75951670D01*
X140330143Y-75951670D01*
X140335000Y-75951729D01*
X140347037Y-75950005D01*
X140353878Y-75949216D01*
X140421854Y-75943269D01*
X140528844Y-75933909D01*
X140528849Y-75933908D01*
X140534325Y-75933429D01*
X140539638Y-75932005D01*
X140539640Y-75932005D01*
X140722284Y-75883066D01*
X140722286Y-75883065D01*
X140727594Y-75881643D01*
X140732576Y-75879320D01*
X140903947Y-75799409D01*
X140903952Y-75799406D01*
X140908934Y-75797083D01*
X141064926Y-75687856D01*
X141068324Y-75685477D01*
X141068327Y-75685475D01*
X141072835Y-75682318D01*
X141214318Y-75540835D01*
X141218317Y-75535125D01*
X141325926Y-75381442D01*
X141329083Y-75376934D01*
X141331406Y-75371952D01*
X141331409Y-75371947D01*
X141411320Y-75200576D01*
X141411320Y-75200575D01*
X141413643Y-75195594D01*
X141465429Y-75002325D01*
X141479377Y-74842898D01*
X141480644Y-74832978D01*
X141480995Y-74830896D01*
X141483576Y-74815552D01*
X141483729Y-74803000D01*
X141479773Y-74775376D01*
X141478500Y-74757514D01*
X141478500Y-69268250D01*
X141480246Y-69247345D01*
X141482770Y-69232344D01*
X141482770Y-69232341D01*
X141483576Y-69227552D01*
X141483704Y-69217029D01*
X141504533Y-69149157D01*
X141558750Y-69103320D01*
X141598906Y-69095094D01*
X141598723Y-69093691D01*
X141598724Y-69093691D01*
X141630286Y-69089564D01*
X141646621Y-69088500D01*
X159335633Y-69088500D01*
X159355018Y-69090000D01*
X159369853Y-69092310D01*
X159369855Y-69092310D01*
X159378724Y-69093691D01*
X159384508Y-69092935D01*
X159450868Y-69113307D01*
X159496700Y-69167528D01*
X159505165Y-69208873D01*
X159506309Y-69208723D01*
X159506309Y-69208724D01*
X159506329Y-69208873D01*
X159510436Y-69240283D01*
X159511500Y-69256621D01*
X159511500Y-94197551D01*
X159491498Y-94265672D01*
X159437842Y-94312165D01*
X159367568Y-94322269D01*
X159302988Y-94292775D01*
X159277047Y-94261691D01*
X159258580Y-94230466D01*
X159254542Y-94223638D01*
X159240221Y-94209317D01*
X159227380Y-94194283D01*
X159220131Y-94184306D01*
X159215472Y-94177893D01*
X159181395Y-94149702D01*
X159172616Y-94141712D01*
X154340405Y-89309500D01*
X154306379Y-89247188D01*
X154303500Y-89220405D01*
X154303500Y-89093654D01*
X154323502Y-89025533D01*
X154377158Y-88979040D01*
X154447432Y-88968936D01*
X154474448Y-88975944D01*
X154554996Y-89006702D01*
X154564899Y-89009579D01*
X154668250Y-89030606D01*
X154682299Y-89029410D01*
X154686000Y-89019065D01*
X154686000Y-89018517D01*
X155194000Y-89018517D01*
X155198064Y-89032359D01*
X155211478Y-89034393D01*
X155218184Y-89033534D01*
X155228262Y-89031392D01*
X155432255Y-88970191D01*
X155441842Y-88966433D01*
X155633095Y-88872739D01*
X155641945Y-88867464D01*
X155815328Y-88743792D01*
X155823200Y-88737139D01*
X155974052Y-88586812D01*
X155980730Y-88578965D01*
X156108022Y-88401819D01*
X156109279Y-88402722D01*
X156156373Y-88359362D01*
X156226311Y-88347145D01*
X156291751Y-88374678D01*
X156319579Y-88406511D01*
X156379987Y-88505088D01*
X156526250Y-88673938D01*
X156698126Y-88816632D01*
X156891000Y-88929338D01*
X157099692Y-89009030D01*
X157104760Y-89010061D01*
X157104763Y-89010062D01*
X157180806Y-89025533D01*
X157318597Y-89053567D01*
X157323772Y-89053757D01*
X157323774Y-89053757D01*
X157536673Y-89061564D01*
X157536677Y-89061564D01*
X157541837Y-89061753D01*
X157546957Y-89061097D01*
X157546959Y-89061097D01*
X157758288Y-89034025D01*
X157758289Y-89034025D01*
X157763416Y-89033368D01*
X157768366Y-89031883D01*
X157972429Y-88970661D01*
X157972434Y-88970659D01*
X157977384Y-88969174D01*
X158177994Y-88870896D01*
X158359860Y-88741173D01*
X158406722Y-88694475D01*
X158503400Y-88598134D01*
X158518096Y-88583489D01*
X158648453Y-88402077D01*
X158661995Y-88374678D01*
X158745136Y-88206453D01*
X158745137Y-88206451D01*
X158747430Y-88201811D01*
X158812370Y-87988069D01*
X158841529Y-87766590D01*
X158843156Y-87700000D01*
X158824852Y-87477361D01*
X158770431Y-87260702D01*
X158681354Y-87055840D01*
X158560014Y-86868277D01*
X158409670Y-86703051D01*
X158405619Y-86699852D01*
X158405615Y-86699848D01*
X158238414Y-86567800D01*
X158238410Y-86567798D01*
X158234359Y-86564598D01*
X158193053Y-86541796D01*
X158143084Y-86491364D01*
X158128312Y-86421921D01*
X158153428Y-86355516D01*
X158180780Y-86328909D01*
X158224603Y-86297650D01*
X158359860Y-86201173D01*
X158406722Y-86154475D01*
X158514435Y-86047137D01*
X158518096Y-86043489D01*
X158521583Y-86038637D01*
X158645435Y-85866277D01*
X158648453Y-85862077D01*
X158661995Y-85834678D01*
X158745136Y-85666453D01*
X158745137Y-85666451D01*
X158747430Y-85661811D01*
X158812370Y-85448069D01*
X158841529Y-85226590D01*
X158843156Y-85160000D01*
X158824852Y-84937361D01*
X158770431Y-84720702D01*
X158681354Y-84515840D01*
X158560014Y-84328277D01*
X158409670Y-84163051D01*
X158405619Y-84159852D01*
X158405615Y-84159848D01*
X158238414Y-84027800D01*
X158238410Y-84027798D01*
X158234359Y-84024598D01*
X158198028Y-84004542D01*
X158182136Y-83995769D01*
X158038789Y-83916638D01*
X158033920Y-83914914D01*
X158033916Y-83914912D01*
X157833087Y-83843795D01*
X157833083Y-83843794D01*
X157828212Y-83842069D01*
X157823119Y-83841162D01*
X157823116Y-83841161D01*
X157613373Y-83803800D01*
X157613367Y-83803799D01*
X157608284Y-83802894D01*
X157534452Y-83801992D01*
X157390081Y-83800228D01*
X157390079Y-83800228D01*
X157384911Y-83800165D01*
X157164091Y-83833955D01*
X156951756Y-83903357D01*
X156753607Y-84006507D01*
X156749474Y-84009610D01*
X156749471Y-84009612D01*
X156725247Y-84027800D01*
X156574965Y-84140635D01*
X156420629Y-84302138D01*
X156313204Y-84459618D01*
X156312898Y-84460066D01*
X156257987Y-84505069D01*
X156187462Y-84513240D01*
X156123715Y-84481986D01*
X156103018Y-84457502D01*
X156022426Y-84332926D01*
X156016136Y-84324757D01*
X155872806Y-84167240D01*
X155865273Y-84160215D01*
X155698139Y-84028222D01*
X155689552Y-84022517D01*
X155503117Y-83919599D01*
X155493705Y-83915369D01*
X155292959Y-83844280D01*
X155282988Y-83841646D01*
X155211837Y-83828972D01*
X155198540Y-83830432D01*
X155194000Y-83844989D01*
X155194000Y-89018517D01*
X154686000Y-89018517D01*
X154686000Y-83843102D01*
X154682082Y-83829758D01*
X154667806Y-83827771D01*
X154629324Y-83833660D01*
X154619288Y-83836051D01*
X154416868Y-83902212D01*
X154407359Y-83906209D01*
X154218463Y-84004542D01*
X154209738Y-84010036D01*
X154039433Y-84137905D01*
X154031726Y-84144748D01*
X153884590Y-84298717D01*
X153878109Y-84306722D01*
X153773498Y-84460074D01*
X153718587Y-84505076D01*
X153648062Y-84513247D01*
X153584315Y-84481993D01*
X153563618Y-84457509D01*
X153482822Y-84332617D01*
X153482820Y-84332614D01*
X153480014Y-84328277D01*
X153329670Y-84163051D01*
X153325619Y-84159852D01*
X153325615Y-84159848D01*
X153158414Y-84027800D01*
X153158410Y-84027798D01*
X153154359Y-84024598D01*
X153118028Y-84004542D01*
X153102136Y-83995769D01*
X152958789Y-83916638D01*
X152953920Y-83914914D01*
X152953916Y-83914912D01*
X152753087Y-83843795D01*
X152753083Y-83843794D01*
X152748212Y-83842069D01*
X152743119Y-83841162D01*
X152743116Y-83841161D01*
X152533373Y-83803800D01*
X152533367Y-83803799D01*
X152528284Y-83802894D01*
X152454452Y-83801992D01*
X152310081Y-83800228D01*
X152310079Y-83800228D01*
X152304911Y-83800165D01*
X152084091Y-83833955D01*
X151871756Y-83903357D01*
X151673607Y-84006507D01*
X151669474Y-84009610D01*
X151669471Y-84009612D01*
X151645247Y-84027800D01*
X151494965Y-84140635D01*
X151340629Y-84302138D01*
X151233201Y-84459621D01*
X151178293Y-84504621D01*
X151107768Y-84512792D01*
X151044021Y-84481538D01*
X151023324Y-84457054D01*
X150942822Y-84332617D01*
X150942820Y-84332614D01*
X150940014Y-84328277D01*
X150789670Y-84163051D01*
X150785619Y-84159852D01*
X150785615Y-84159848D01*
X150618414Y-84027800D01*
X150618410Y-84027798D01*
X150614359Y-84024598D01*
X150578028Y-84004542D01*
X150562136Y-83995769D01*
X150418789Y-83916638D01*
X150413920Y-83914914D01*
X150413916Y-83914912D01*
X150213087Y-83843795D01*
X150213083Y-83843794D01*
X150208212Y-83842069D01*
X150203119Y-83841162D01*
X150203116Y-83841161D01*
X149993373Y-83803800D01*
X149993367Y-83803799D01*
X149988284Y-83802894D01*
X149914452Y-83801992D01*
X149770081Y-83800228D01*
X149770079Y-83800228D01*
X149764911Y-83800165D01*
X149544091Y-83833955D01*
X149331756Y-83903357D01*
X149133607Y-84006507D01*
X149129474Y-84009610D01*
X149129471Y-84009612D01*
X149105247Y-84027800D01*
X148954965Y-84140635D01*
X148800629Y-84302138D01*
X148693201Y-84459621D01*
X148638293Y-84504621D01*
X148567768Y-84512792D01*
X148504021Y-84481538D01*
X148483324Y-84457054D01*
X148402822Y-84332617D01*
X148402820Y-84332614D01*
X148400014Y-84328277D01*
X148249670Y-84163051D01*
X148245619Y-84159852D01*
X148245615Y-84159848D01*
X148078414Y-84027800D01*
X148078410Y-84027798D01*
X148074359Y-84024598D01*
X148038028Y-84004542D01*
X148022136Y-83995769D01*
X147878789Y-83916638D01*
X147873920Y-83914914D01*
X147873916Y-83914912D01*
X147673087Y-83843795D01*
X147673083Y-83843794D01*
X147668212Y-83842069D01*
X147663119Y-83841162D01*
X147663116Y-83841161D01*
X147453373Y-83803800D01*
X147453367Y-83803799D01*
X147448284Y-83802894D01*
X147374452Y-83801992D01*
X147230081Y-83800228D01*
X147230079Y-83800228D01*
X147224911Y-83800165D01*
X147004091Y-83833955D01*
X146791756Y-83903357D01*
X146593607Y-84006507D01*
X146589474Y-84009610D01*
X146589471Y-84009612D01*
X146565247Y-84027800D01*
X146414965Y-84140635D01*
X146260629Y-84302138D01*
X146153201Y-84459621D01*
X146098293Y-84504621D01*
X146027768Y-84512792D01*
X145964021Y-84481538D01*
X145943324Y-84457054D01*
X145862822Y-84332617D01*
X145862820Y-84332614D01*
X145860014Y-84328277D01*
X145709670Y-84163051D01*
X145705619Y-84159852D01*
X145705615Y-84159848D01*
X145538414Y-84027800D01*
X145538410Y-84027798D01*
X145534359Y-84024598D01*
X145498028Y-84004542D01*
X145482136Y-83995769D01*
X145338789Y-83916638D01*
X145333920Y-83914914D01*
X145333916Y-83914912D01*
X145133087Y-83843795D01*
X145133083Y-83843794D01*
X145128212Y-83842069D01*
X145123119Y-83841162D01*
X145123116Y-83841161D01*
X144913373Y-83803800D01*
X144913367Y-83803799D01*
X144908284Y-83802894D01*
X144834452Y-83801992D01*
X144690081Y-83800228D01*
X144690079Y-83800228D01*
X144684911Y-83800165D01*
X144464091Y-83833955D01*
X144251756Y-83903357D01*
X144053607Y-84006507D01*
X144049474Y-84009610D01*
X144049471Y-84009612D01*
X144025247Y-84027800D01*
X143874965Y-84140635D01*
X143720629Y-84302138D01*
X143594743Y-84486680D01*
X143500688Y-84689305D01*
X143440989Y-84904570D01*
X143417251Y-85126695D01*
X143417548Y-85131848D01*
X143417548Y-85131851D01*
X143423011Y-85226590D01*
X143430110Y-85349715D01*
X143431247Y-85354761D01*
X143431248Y-85354767D01*
X143451119Y-85442939D01*
X143479222Y-85567639D01*
X143563266Y-85774616D01*
X143565965Y-85779020D01*
X143677291Y-85960688D01*
X143679987Y-85965088D01*
X143826250Y-86133938D01*
X143830230Y-86137242D01*
X143834981Y-86141187D01*
X143874616Y-86200090D01*
X143876113Y-86271071D01*
X143838997Y-86331593D01*
X143798725Y-86356112D01*
X143757675Y-86371501D01*
X143683295Y-86399385D01*
X143566739Y-86486739D01*
X143479385Y-86603295D01*
X143428255Y-86739684D01*
X143421500Y-86801866D01*
X143421500Y-88598134D01*
X143428255Y-88660316D01*
X143479385Y-88796705D01*
X143566739Y-88913261D01*
X143683295Y-89000615D01*
X143819684Y-89051745D01*
X143881866Y-89058500D01*
X144020500Y-89058500D01*
X144088621Y-89078502D01*
X144135114Y-89132158D01*
X144146500Y-89184500D01*
X144146500Y-89456233D01*
X144145973Y-89467416D01*
X144144298Y-89474909D01*
X144144547Y-89482835D01*
X144144547Y-89482836D01*
X144146438Y-89542986D01*
X144146500Y-89546945D01*
X144146500Y-89574856D01*
X144146997Y-89578790D01*
X144146997Y-89578791D01*
X144147005Y-89578856D01*
X144147938Y-89590693D01*
X144149327Y-89634889D01*
X144154408Y-89652377D01*
X144154978Y-89654339D01*
X144158987Y-89673700D01*
X144161526Y-89693797D01*
X144164445Y-89701168D01*
X144164445Y-89701170D01*
X144177804Y-89734912D01*
X144181649Y-89746142D01*
X144193982Y-89788593D01*
X144198015Y-89795412D01*
X144198017Y-89795417D01*
X144204293Y-89806028D01*
X144212988Y-89823776D01*
X144220448Y-89842617D01*
X144225110Y-89849033D01*
X144225110Y-89849034D01*
X144246436Y-89878387D01*
X144252952Y-89888307D01*
X144275458Y-89926362D01*
X144289779Y-89940683D01*
X144302619Y-89955716D01*
X144314528Y-89972107D01*
X144345775Y-89997957D01*
X144348605Y-90000298D01*
X144357384Y-90008288D01*
X149189595Y-94840500D01*
X149223621Y-94902812D01*
X149226500Y-94929595D01*
X149226500Y-95241692D01*
X149206498Y-95309813D01*
X149158683Y-95353453D01*
X149133607Y-95366507D01*
X149129474Y-95369610D01*
X149129471Y-95369612D01*
X148959100Y-95497530D01*
X148954965Y-95500635D01*
X148800629Y-95662138D01*
X148693204Y-95819618D01*
X148692898Y-95820066D01*
X148637987Y-95865069D01*
X148567462Y-95873240D01*
X148503715Y-95841986D01*
X148483018Y-95817502D01*
X148402426Y-95692926D01*
X148396136Y-95684757D01*
X148252806Y-95527240D01*
X148245273Y-95520215D01*
X148078139Y-95388222D01*
X148069552Y-95382517D01*
X147883117Y-95279599D01*
X147873705Y-95275369D01*
X147672959Y-95204280D01*
X147662988Y-95201646D01*
X147591837Y-95188972D01*
X147578540Y-95190432D01*
X147574000Y-95204989D01*
X147574000Y-100378517D01*
X147578064Y-100392359D01*
X147591478Y-100394393D01*
X147598184Y-100393534D01*
X147608262Y-100391392D01*
X147812255Y-100330191D01*
X147821842Y-100326433D01*
X148013095Y-100232739D01*
X148021945Y-100227464D01*
X148195328Y-100103792D01*
X148203200Y-100097139D01*
X148354052Y-99946812D01*
X148360730Y-99938965D01*
X148488022Y-99761819D01*
X148489279Y-99762722D01*
X148536373Y-99719362D01*
X148606311Y-99707145D01*
X148671751Y-99734678D01*
X148699579Y-99766511D01*
X148759987Y-99865088D01*
X148906250Y-100033938D01*
X149078126Y-100176632D01*
X149271000Y-100289338D01*
X149479692Y-100369030D01*
X149484760Y-100370061D01*
X149484763Y-100370062D01*
X149579862Y-100389410D01*
X149698597Y-100413567D01*
X149703772Y-100413757D01*
X149703774Y-100413757D01*
X149916673Y-100421564D01*
X149916677Y-100421564D01*
X149921837Y-100421753D01*
X149926957Y-100421097D01*
X149926959Y-100421097D01*
X150138288Y-100394025D01*
X150138289Y-100394025D01*
X150143416Y-100393368D01*
X150148366Y-100391883D01*
X150352429Y-100330661D01*
X150352434Y-100330659D01*
X150357384Y-100329174D01*
X150557994Y-100230896D01*
X150739860Y-100101173D01*
X150898096Y-99943489D01*
X151028453Y-99762077D01*
X151029776Y-99763028D01*
X151076645Y-99719857D01*
X151146580Y-99707625D01*
X151212026Y-99735144D01*
X151239875Y-99766994D01*
X151299987Y-99865088D01*
X151446250Y-100033938D01*
X151618126Y-100176632D01*
X151811000Y-100289338D01*
X152019692Y-100369030D01*
X152024760Y-100370061D01*
X152024763Y-100370062D01*
X152119862Y-100389410D01*
X152238597Y-100413567D01*
X152243772Y-100413757D01*
X152243774Y-100413757D01*
X152456673Y-100421564D01*
X152456677Y-100421564D01*
X152461837Y-100421753D01*
X152466957Y-100421097D01*
X152466959Y-100421097D01*
X152678288Y-100394025D01*
X152678289Y-100394025D01*
X152683416Y-100393368D01*
X152688366Y-100391883D01*
X152892429Y-100330661D01*
X152892434Y-100330659D01*
X152897384Y-100329174D01*
X153097994Y-100230896D01*
X153279860Y-100101173D01*
X153438096Y-99943489D01*
X153568453Y-99762077D01*
X153569776Y-99763028D01*
X153616645Y-99719857D01*
X153686580Y-99707625D01*
X153752026Y-99735144D01*
X153779875Y-99766994D01*
X153839987Y-99865088D01*
X153986250Y-100033938D01*
X154158126Y-100176632D01*
X154351000Y-100289338D01*
X154559692Y-100369030D01*
X154564760Y-100370061D01*
X154564763Y-100370062D01*
X154659862Y-100389410D01*
X154778597Y-100413567D01*
X154783772Y-100413757D01*
X154783774Y-100413757D01*
X154996673Y-100421564D01*
X154996677Y-100421564D01*
X155001837Y-100421753D01*
X155006957Y-100421097D01*
X155006959Y-100421097D01*
X155218288Y-100394025D01*
X155218289Y-100394025D01*
X155223416Y-100393368D01*
X155228366Y-100391883D01*
X155432429Y-100330661D01*
X155432434Y-100330659D01*
X155437384Y-100329174D01*
X155637994Y-100230896D01*
X155819860Y-100101173D01*
X155978096Y-99943489D01*
X156108453Y-99762077D01*
X156109776Y-99763028D01*
X156156645Y-99719857D01*
X156226580Y-99707625D01*
X156292026Y-99735144D01*
X156319875Y-99766994D01*
X156379987Y-99865088D01*
X156526250Y-100033938D01*
X156698126Y-100176632D01*
X156891000Y-100289338D01*
X157099692Y-100369030D01*
X157104760Y-100370061D01*
X157104763Y-100370062D01*
X157199862Y-100389410D01*
X157318597Y-100413567D01*
X157323772Y-100413757D01*
X157323774Y-100413757D01*
X157536673Y-100421564D01*
X157536677Y-100421564D01*
X157541837Y-100421753D01*
X157546957Y-100421097D01*
X157546959Y-100421097D01*
X157758288Y-100394025D01*
X157758289Y-100394025D01*
X157763416Y-100393368D01*
X157768366Y-100391883D01*
X157972429Y-100330661D01*
X157972434Y-100330659D01*
X157977384Y-100329174D01*
X158177994Y-100230896D01*
X158359860Y-100101173D01*
X158518096Y-99943489D01*
X158648453Y-99762077D01*
X158661995Y-99734678D01*
X158745136Y-99566453D01*
X158745137Y-99566451D01*
X158747430Y-99561811D01*
X158812370Y-99348069D01*
X158841529Y-99126590D01*
X158843156Y-99060000D01*
X158824852Y-98837361D01*
X158796821Y-98725765D01*
X158799625Y-98654823D01*
X158829930Y-98605974D01*
X159142247Y-98293657D01*
X159150537Y-98286113D01*
X159157018Y-98282000D01*
X159203659Y-98232332D01*
X159206413Y-98229491D01*
X159226134Y-98209770D01*
X159228612Y-98206575D01*
X159236318Y-98197553D01*
X159244718Y-98188608D01*
X159266586Y-98165321D01*
X159275085Y-98149861D01*
X159325430Y-98099802D01*
X159394846Y-98084908D01*
X159461296Y-98109908D01*
X159503680Y-98166865D01*
X159511500Y-98210561D01*
X159511500Y-108535633D01*
X159510000Y-108555018D01*
X159506309Y-108578724D01*
X159507065Y-108584508D01*
X159486693Y-108650868D01*
X159432472Y-108696700D01*
X159391127Y-108705165D01*
X159391277Y-108706309D01*
X159391276Y-108706309D01*
X159359714Y-108710436D01*
X159343379Y-108711500D01*
X112444367Y-108711500D01*
X112424982Y-108710000D01*
X112410148Y-108707690D01*
X112410145Y-108707690D01*
X112401276Y-108706309D01*
X112396065Y-108706990D01*
X112329984Y-108686706D01*
X112284150Y-108632486D01*
X112273671Y-108589778D01*
X112273729Y-108585000D01*
X112269773Y-108557376D01*
X112268500Y-108539514D01*
X112268500Y-104247655D01*
X137939858Y-104247655D01*
X137975104Y-104506638D01*
X137976412Y-104511124D01*
X137976412Y-104511126D01*
X137996098Y-104578664D01*
X138048243Y-104757567D01*
X138157668Y-104994928D01*
X138160231Y-104998837D01*
X138298410Y-105209596D01*
X138298414Y-105209601D01*
X138300976Y-105213509D01*
X138475018Y-105408506D01*
X138675970Y-105575637D01*
X138679973Y-105578066D01*
X138895422Y-105708804D01*
X138895426Y-105708806D01*
X138899419Y-105711229D01*
X139140455Y-105812303D01*
X139393783Y-105876641D01*
X139398434Y-105877109D01*
X139398438Y-105877110D01*
X139591308Y-105896531D01*
X139610867Y-105898500D01*
X139766354Y-105898500D01*
X139768679Y-105898327D01*
X139768685Y-105898327D01*
X139956000Y-105884407D01*
X139956004Y-105884406D01*
X139960652Y-105884061D01*
X139965200Y-105883032D01*
X139965206Y-105883031D01*
X140151601Y-105840853D01*
X140215577Y-105826377D01*
X140251769Y-105812303D01*
X140454824Y-105733340D01*
X140454827Y-105733339D01*
X140459177Y-105731647D01*
X140686098Y-105601951D01*
X140891357Y-105440138D01*
X141070443Y-105249763D01*
X141219424Y-105035009D01*
X141335025Y-104800593D01*
X141414707Y-104551665D01*
X141456721Y-104293693D01*
X141460142Y-104032345D01*
X141424896Y-103773362D01*
X141410473Y-103723877D01*
X141353068Y-103526932D01*
X141351757Y-103522433D01*
X141242332Y-103285072D01*
X141209519Y-103235024D01*
X141101590Y-103070404D01*
X141101586Y-103070399D01*
X141099024Y-103066491D01*
X140924982Y-102871494D01*
X140724030Y-102704363D01*
X140676844Y-102675730D01*
X140504578Y-102571196D01*
X140504574Y-102571194D01*
X140500581Y-102568771D01*
X140259545Y-102467697D01*
X140006217Y-102403359D01*
X140001566Y-102402891D01*
X140001562Y-102402890D01*
X139792271Y-102381816D01*
X139789133Y-102381500D01*
X139633646Y-102381500D01*
X139631321Y-102381673D01*
X139631315Y-102381673D01*
X139444000Y-102395593D01*
X139443996Y-102395594D01*
X139439348Y-102395939D01*
X139434800Y-102396968D01*
X139434794Y-102396969D01*
X139248399Y-102439147D01*
X139184423Y-102453623D01*
X139180071Y-102455315D01*
X139180069Y-102455316D01*
X138945176Y-102546660D01*
X138945173Y-102546661D01*
X138940823Y-102548353D01*
X138713902Y-102678049D01*
X138508643Y-102839862D01*
X138329557Y-103030237D01*
X138180576Y-103244991D01*
X138064975Y-103479407D01*
X137985293Y-103728335D01*
X137943279Y-103986307D01*
X137939858Y-104247655D01*
X112268500Y-104247655D01*
X112268500Y-101122149D01*
X112288502Y-101054028D01*
X112342158Y-101007535D01*
X112412432Y-100997431D01*
X112477012Y-101026925D01*
X112483595Y-101033053D01*
X112984088Y-101533545D01*
X112996930Y-101548581D01*
X113004815Y-101559434D01*
X113009725Y-101563855D01*
X113009726Y-101563856D01*
X113054194Y-101603895D01*
X113058970Y-101608427D01*
X113073015Y-101622472D01*
X113075575Y-101624545D01*
X113075576Y-101624546D01*
X113088443Y-101634966D01*
X113093453Y-101639246D01*
X113137921Y-101679284D01*
X113137926Y-101679288D01*
X113142831Y-101683704D01*
X113148543Y-101687002D01*
X113148546Y-101687004D01*
X113154446Y-101690410D01*
X113170741Y-101701609D01*
X113181161Y-101710047D01*
X113240363Y-101740213D01*
X113246133Y-101743346D01*
X113297945Y-101773260D01*
X113297950Y-101773262D01*
X113303669Y-101776564D01*
X113309949Y-101778605D01*
X113309957Y-101778608D01*
X113316421Y-101780708D01*
X113334683Y-101788272D01*
X113340749Y-101791363D01*
X113340758Y-101791366D01*
X113346637Y-101794362D01*
X113353015Y-101796071D01*
X113410804Y-101811556D01*
X113417106Y-101813422D01*
X113480298Y-101833954D01*
X113493205Y-101835311D01*
X113493628Y-101835355D01*
X113513071Y-101838958D01*
X113526029Y-101842430D01*
X113532619Y-101842775D01*
X113532623Y-101842776D01*
X113576573Y-101845079D01*
X113592372Y-101845907D01*
X113598931Y-101846423D01*
X113618694Y-101848500D01*
X113638555Y-101848500D01*
X113645150Y-101848673D01*
X113704902Y-101851805D01*
X113704906Y-101851805D01*
X113711493Y-101852150D01*
X113724747Y-101850051D01*
X113744456Y-101848500D01*
X135175543Y-101848500D01*
X135195255Y-101850051D01*
X135208507Y-101852150D01*
X135215094Y-101851805D01*
X135215098Y-101851805D01*
X135274850Y-101848673D01*
X135281445Y-101848500D01*
X135301306Y-101848500D01*
X135321069Y-101846423D01*
X135327628Y-101845907D01*
X135343427Y-101845079D01*
X135387377Y-101842776D01*
X135387381Y-101842775D01*
X135393971Y-101842430D01*
X135406929Y-101838958D01*
X135426372Y-101835355D01*
X135426795Y-101835311D01*
X135439702Y-101833954D01*
X135502894Y-101813422D01*
X135509196Y-101811556D01*
X135566985Y-101796071D01*
X135573363Y-101794362D01*
X135579242Y-101791366D01*
X135579251Y-101791363D01*
X135585317Y-101788272D01*
X135603579Y-101780708D01*
X135610043Y-101778608D01*
X135610051Y-101778605D01*
X135616331Y-101776564D01*
X135622050Y-101773262D01*
X135622055Y-101773260D01*
X135673867Y-101743346D01*
X135679637Y-101740213D01*
X135738839Y-101710047D01*
X135749259Y-101701609D01*
X135765552Y-101690411D01*
X135765903Y-101690209D01*
X135777169Y-101683704D01*
X135782075Y-101679287D01*
X135782080Y-101679283D01*
X135826538Y-101639253D01*
X135831554Y-101634969D01*
X135844409Y-101624559D01*
X135844412Y-101624556D01*
X135846986Y-101622472D01*
X135861031Y-101608427D01*
X135865816Y-101603886D01*
X135910274Y-101563856D01*
X135910275Y-101563855D01*
X135915185Y-101559434D01*
X135923075Y-101548574D01*
X135935912Y-101533546D01*
X137489052Y-99980405D01*
X137551364Y-99946380D01*
X137578147Y-99943500D01*
X143690357Y-99943500D01*
X143758478Y-99963502D01*
X143785589Y-99986998D01*
X143826250Y-100033938D01*
X143998126Y-100176632D01*
X144191000Y-100289338D01*
X144399692Y-100369030D01*
X144404760Y-100370061D01*
X144404763Y-100370062D01*
X144499862Y-100389410D01*
X144618597Y-100413567D01*
X144623772Y-100413757D01*
X144623774Y-100413757D01*
X144836673Y-100421564D01*
X144836677Y-100421564D01*
X144841837Y-100421753D01*
X144846957Y-100421097D01*
X144846959Y-100421097D01*
X145058288Y-100394025D01*
X145058289Y-100394025D01*
X145063416Y-100393368D01*
X145068366Y-100391883D01*
X145272429Y-100330661D01*
X145272434Y-100330659D01*
X145277384Y-100329174D01*
X145477994Y-100230896D01*
X145659860Y-100101173D01*
X145818096Y-99943489D01*
X145948453Y-99762077D01*
X145949640Y-99762930D01*
X145996960Y-99719362D01*
X146066897Y-99707145D01*
X146132338Y-99734678D01*
X146160166Y-99766511D01*
X146217694Y-99860388D01*
X146223777Y-99868699D01*
X146363213Y-100029667D01*
X146370580Y-100036883D01*
X146534434Y-100172916D01*
X146542881Y-100178831D01*
X146726756Y-100286279D01*
X146736042Y-100290729D01*
X146935001Y-100366703D01*
X146944899Y-100369579D01*
X147048250Y-100390606D01*
X147062299Y-100389410D01*
X147066000Y-100379065D01*
X147066000Y-95203102D01*
X147062082Y-95189758D01*
X147047806Y-95187771D01*
X147009324Y-95193660D01*
X146999288Y-95196051D01*
X146796868Y-95262212D01*
X146787359Y-95266209D01*
X146598463Y-95364542D01*
X146589738Y-95370036D01*
X146419433Y-95497905D01*
X146411726Y-95504748D01*
X146334478Y-95585584D01*
X146272954Y-95621014D01*
X146202042Y-95617557D01*
X146144255Y-95576311D01*
X146125402Y-95542763D01*
X146083767Y-95431703D01*
X146080615Y-95423295D01*
X145993261Y-95306739D01*
X145876705Y-95219385D01*
X145838304Y-95204989D01*
X145745270Y-95170112D01*
X145688506Y-95127470D01*
X145663806Y-95060909D01*
X145663500Y-95052130D01*
X145663500Y-94059450D01*
X145665051Y-94039739D01*
X145666117Y-94033009D01*
X145667149Y-94026493D01*
X145663673Y-93960168D01*
X145663500Y-93953574D01*
X145663500Y-93933694D01*
X145661422Y-93913920D01*
X145660905Y-93907346D01*
X145657775Y-93847627D01*
X145657775Y-93847626D01*
X145657429Y-93841028D01*
X145655719Y-93834646D01*
X145655718Y-93834639D01*
X145653958Y-93828069D01*
X145650356Y-93808635D01*
X145649645Y-93801870D01*
X145649645Y-93801869D01*
X145648954Y-93795298D01*
X145628427Y-93732122D01*
X145626555Y-93725803D01*
X145611071Y-93668013D01*
X145611069Y-93668008D01*
X145609362Y-93661637D01*
X145606366Y-93655756D01*
X145606364Y-93655752D01*
X145603272Y-93649683D01*
X145595708Y-93631421D01*
X145593605Y-93624949D01*
X145593603Y-93624945D01*
X145591564Y-93618669D01*
X145588263Y-93612951D01*
X145558347Y-93561135D01*
X145555199Y-93555338D01*
X145528042Y-93502038D01*
X145525047Y-93496160D01*
X145516607Y-93485737D01*
X145505413Y-93469451D01*
X145498704Y-93457831D01*
X145494285Y-93452923D01*
X145494282Y-93452919D01*
X145454255Y-93408464D01*
X145449971Y-93403449D01*
X145439547Y-93390576D01*
X145439544Y-93390573D01*
X145437472Y-93388014D01*
X145423427Y-93373969D01*
X145418886Y-93369184D01*
X145378856Y-93324726D01*
X145378855Y-93324725D01*
X145374434Y-93319815D01*
X145363574Y-93311925D01*
X145348546Y-93299088D01*
X142920912Y-90871454D01*
X142908075Y-90856426D01*
X142900185Y-90845566D01*
X142850816Y-90801114D01*
X142846031Y-90796573D01*
X142831986Y-90782528D01*
X142829409Y-90780441D01*
X142816554Y-90770031D01*
X142811538Y-90765747D01*
X142767080Y-90725717D01*
X142767075Y-90725713D01*
X142762169Y-90721296D01*
X142750552Y-90714589D01*
X142734259Y-90703391D01*
X142728971Y-90699109D01*
X142723839Y-90694953D01*
X142664637Y-90664787D01*
X142658867Y-90661654D01*
X142607055Y-90631740D01*
X142607050Y-90631738D01*
X142601331Y-90628436D01*
X142595051Y-90626395D01*
X142595043Y-90626392D01*
X142588579Y-90624292D01*
X142570317Y-90616728D01*
X142564251Y-90613637D01*
X142564242Y-90613634D01*
X142558363Y-90610638D01*
X142547672Y-90607773D01*
X142494196Y-90593444D01*
X142487894Y-90591578D01*
X142424702Y-90571046D01*
X142411372Y-90569645D01*
X142391929Y-90566042D01*
X142378971Y-90562570D01*
X142372381Y-90562225D01*
X142372377Y-90562224D01*
X142328427Y-90559921D01*
X142312628Y-90559093D01*
X142306069Y-90558577D01*
X142286306Y-90556500D01*
X142266445Y-90556500D01*
X142259850Y-90556327D01*
X142200098Y-90553195D01*
X142200094Y-90553195D01*
X142193507Y-90552850D01*
X142180253Y-90554949D01*
X142160544Y-90556500D01*
X140118148Y-90556500D01*
X140050027Y-90536498D01*
X140029053Y-90519595D01*
X138700405Y-89190947D01*
X138666379Y-89128635D01*
X138663500Y-89101852D01*
X138663500Y-88789866D01*
X138683502Y-88721745D01*
X138700560Y-88700615D01*
X138818096Y-88583489D01*
X138948453Y-88402077D01*
X138961995Y-88374678D01*
X139045136Y-88206453D01*
X139045137Y-88206451D01*
X139047430Y-88201811D01*
X139112370Y-87988069D01*
X139141529Y-87766590D01*
X139143156Y-87700000D01*
X139124852Y-87477361D01*
X139070431Y-87260702D01*
X138981354Y-87055840D01*
X138860014Y-86868277D01*
X138709670Y-86703051D01*
X138705612Y-86699846D01*
X138703572Y-86697944D01*
X138667391Y-86636859D01*
X138663500Y-86605790D01*
X138663500Y-86249866D01*
X138683502Y-86181745D01*
X138700560Y-86160615D01*
X138818096Y-86043489D01*
X138821583Y-86038637D01*
X138945435Y-85866277D01*
X138948453Y-85862077D01*
X138961995Y-85834678D01*
X139045136Y-85666453D01*
X139045137Y-85666451D01*
X139047430Y-85661811D01*
X139112370Y-85448069D01*
X139141529Y-85226590D01*
X139143156Y-85160000D01*
X139124852Y-84937361D01*
X139070431Y-84720702D01*
X138981354Y-84515840D01*
X138860014Y-84328277D01*
X138709670Y-84163051D01*
X138705619Y-84159852D01*
X138705615Y-84159848D01*
X138538414Y-84027800D01*
X138538410Y-84027798D01*
X138534359Y-84024598D01*
X138498028Y-84004542D01*
X138482136Y-83995769D01*
X138338789Y-83916638D01*
X138333920Y-83914914D01*
X138333916Y-83914912D01*
X138133087Y-83843795D01*
X138133083Y-83843794D01*
X138128212Y-83842069D01*
X138123119Y-83841162D01*
X138123116Y-83841161D01*
X137913373Y-83803800D01*
X137913367Y-83803799D01*
X137908284Y-83802894D01*
X137834452Y-83801992D01*
X137690081Y-83800228D01*
X137690079Y-83800228D01*
X137684911Y-83800165D01*
X137464091Y-83833955D01*
X137251756Y-83903357D01*
X137053607Y-84006507D01*
X137049474Y-84009610D01*
X137049471Y-84009612D01*
X137025247Y-84027800D01*
X136874965Y-84140635D01*
X136720629Y-84302138D01*
X136613204Y-84459618D01*
X136612898Y-84460066D01*
X136557987Y-84505069D01*
X136487462Y-84513240D01*
X136423715Y-84481986D01*
X136403018Y-84457502D01*
X136322426Y-84332926D01*
X136316136Y-84324757D01*
X136172806Y-84167240D01*
X136165273Y-84160215D01*
X135998139Y-84028222D01*
X135989552Y-84022517D01*
X135803117Y-83919599D01*
X135793705Y-83915369D01*
X135592959Y-83844280D01*
X135582988Y-83841646D01*
X135511837Y-83828972D01*
X135498540Y-83830432D01*
X135494000Y-83844989D01*
X135494000Y-89018517D01*
X135498064Y-89032359D01*
X135511478Y-89034393D01*
X135518184Y-89033534D01*
X135528262Y-89031392D01*
X135732255Y-88970191D01*
X135741842Y-88966433D01*
X135933095Y-88872739D01*
X135941945Y-88867464D01*
X136115328Y-88743792D01*
X136123200Y-88737139D01*
X136274052Y-88586812D01*
X136280730Y-88578965D01*
X136408022Y-88401819D01*
X136409279Y-88402722D01*
X136456373Y-88359362D01*
X136526311Y-88347145D01*
X136591751Y-88374678D01*
X136619579Y-88406511D01*
X136679987Y-88505088D01*
X136826250Y-88673938D01*
X136830230Y-88677242D01*
X136850986Y-88694475D01*
X136890621Y-88753378D01*
X136896500Y-88791418D01*
X136896500Y-89440543D01*
X136894949Y-89460255D01*
X136892850Y-89473507D01*
X136893195Y-89480094D01*
X136893195Y-89480098D01*
X136896327Y-89539850D01*
X136896500Y-89546445D01*
X136896500Y-89566306D01*
X136897487Y-89575699D01*
X136898576Y-89586059D01*
X136899093Y-89592633D01*
X136901707Y-89642497D01*
X136902570Y-89658971D01*
X136906042Y-89671929D01*
X136909645Y-89691372D01*
X136911046Y-89704702D01*
X136931578Y-89767894D01*
X136933444Y-89774196D01*
X136950638Y-89838363D01*
X136953634Y-89844242D01*
X136953637Y-89844251D01*
X136956728Y-89850317D01*
X136964292Y-89868579D01*
X136966392Y-89875043D01*
X136966395Y-89875051D01*
X136968436Y-89881331D01*
X136971738Y-89887050D01*
X136971740Y-89887055D01*
X137001654Y-89938867D01*
X137004787Y-89944637D01*
X137034953Y-90003839D01*
X137039109Y-90008971D01*
X137043391Y-90014259D01*
X137054589Y-90030552D01*
X137061296Y-90042169D01*
X137065713Y-90047075D01*
X137065717Y-90047080D01*
X137105747Y-90091538D01*
X137110031Y-90096554D01*
X137120441Y-90109409D01*
X137122528Y-90111986D01*
X137136573Y-90126031D01*
X137141114Y-90130816D01*
X137185566Y-90180185D01*
X137196426Y-90188075D01*
X137211454Y-90200912D01*
X139019088Y-92008546D01*
X139031925Y-92023574D01*
X139039815Y-92034434D01*
X139044725Y-92038855D01*
X139044726Y-92038856D01*
X139089184Y-92078886D01*
X139093969Y-92083427D01*
X139108014Y-92097472D01*
X139110588Y-92099556D01*
X139110591Y-92099559D01*
X139123446Y-92109969D01*
X139128462Y-92114253D01*
X139172920Y-92154283D01*
X139172925Y-92154287D01*
X139177831Y-92158704D01*
X139189097Y-92165209D01*
X139189448Y-92165411D01*
X139205741Y-92176609D01*
X139216161Y-92185047D01*
X139275363Y-92215213D01*
X139281133Y-92218346D01*
X139332945Y-92248260D01*
X139332950Y-92248262D01*
X139338669Y-92251564D01*
X139344949Y-92253605D01*
X139344957Y-92253608D01*
X139351421Y-92255708D01*
X139369683Y-92263272D01*
X139375749Y-92266363D01*
X139375758Y-92266366D01*
X139381637Y-92269362D01*
X139388015Y-92271071D01*
X139445804Y-92286556D01*
X139452106Y-92288422D01*
X139515298Y-92308954D01*
X139528205Y-92310311D01*
X139528628Y-92310355D01*
X139548071Y-92313958D01*
X139561029Y-92317430D01*
X139567619Y-92317775D01*
X139567623Y-92317776D01*
X139611573Y-92320079D01*
X139627372Y-92320907D01*
X139633931Y-92321423D01*
X139653694Y-92323500D01*
X139673555Y-92323500D01*
X139680150Y-92323673D01*
X139739902Y-92326805D01*
X139739906Y-92326805D01*
X139746493Y-92327150D01*
X139759747Y-92325051D01*
X139779456Y-92323500D01*
X141821852Y-92323500D01*
X141889973Y-92343502D01*
X141910947Y-92360405D01*
X143859595Y-94309053D01*
X143893621Y-94371365D01*
X143896500Y-94398148D01*
X143896500Y-95052130D01*
X143876498Y-95120251D01*
X143822842Y-95166744D01*
X143814730Y-95170112D01*
X143721696Y-95204989D01*
X143683295Y-95219385D01*
X143566739Y-95306739D01*
X143479385Y-95423295D01*
X143428255Y-95559684D01*
X143421500Y-95621866D01*
X143421500Y-97418134D01*
X143428255Y-97480316D01*
X143479385Y-97616705D01*
X143566739Y-97733261D01*
X143683295Y-97820615D01*
X143691704Y-97823767D01*
X143691705Y-97823768D01*
X143800451Y-97864535D01*
X143857216Y-97907176D01*
X143881916Y-97973738D01*
X143866709Y-98043087D01*
X143847316Y-98069568D01*
X143782350Y-98137551D01*
X143720826Y-98172981D01*
X143691256Y-98176500D01*
X137239457Y-98176500D01*
X137219745Y-98174949D01*
X137213008Y-98173882D01*
X137213009Y-98173882D01*
X137206493Y-98172850D01*
X137199906Y-98173195D01*
X137199902Y-98173195D01*
X137140150Y-98176327D01*
X137133555Y-98176500D01*
X137113694Y-98176500D01*
X137093931Y-98178577D01*
X137087372Y-98179093D01*
X137071573Y-98179921D01*
X137027623Y-98182224D01*
X137027619Y-98182225D01*
X137021029Y-98182570D01*
X137008071Y-98186042D01*
X136988628Y-98189645D01*
X136975298Y-98191046D01*
X136912106Y-98211578D01*
X136905804Y-98213444D01*
X136864730Y-98224450D01*
X136841637Y-98230638D01*
X136835758Y-98233634D01*
X136835749Y-98233637D01*
X136829683Y-98236728D01*
X136811421Y-98244292D01*
X136804957Y-98246392D01*
X136804949Y-98246395D01*
X136798669Y-98248436D01*
X136792950Y-98251738D01*
X136792945Y-98251740D01*
X136741133Y-98281654D01*
X136735363Y-98284787D01*
X136676161Y-98314953D01*
X136666309Y-98322931D01*
X136665742Y-98323390D01*
X136649446Y-98334590D01*
X136643546Y-98337996D01*
X136643543Y-98337998D01*
X136637831Y-98341296D01*
X136632926Y-98345712D01*
X136632921Y-98345716D01*
X136588453Y-98385754D01*
X136583443Y-98390034D01*
X136568015Y-98402528D01*
X136553979Y-98416564D01*
X136549194Y-98421105D01*
X136499815Y-98465566D01*
X136495935Y-98470906D01*
X136495928Y-98470914D01*
X136491927Y-98476422D01*
X136479086Y-98491457D01*
X136155801Y-98814742D01*
X136093489Y-98848768D01*
X136022674Y-98843703D01*
X135965838Y-98801156D01*
X135944502Y-98756344D01*
X135936821Y-98725766D01*
X135939625Y-98654825D01*
X135969930Y-98605974D01*
X136282247Y-98293657D01*
X136290537Y-98286113D01*
X136297018Y-98282000D01*
X136343659Y-98232332D01*
X136346413Y-98229491D01*
X136366134Y-98209770D01*
X136368612Y-98206575D01*
X136376318Y-98197553D01*
X136384718Y-98188608D01*
X136406586Y-98165321D01*
X136416346Y-98147568D01*
X136427199Y-98131045D01*
X136434753Y-98121306D01*
X136439613Y-98115041D01*
X136457176Y-98074457D01*
X136462383Y-98063827D01*
X136483695Y-98025060D01*
X136485666Y-98017383D01*
X136485668Y-98017378D01*
X136488732Y-98005442D01*
X136495138Y-97986730D01*
X136500033Y-97975419D01*
X136503181Y-97968145D01*
X136504421Y-97960317D01*
X136504423Y-97960310D01*
X136510099Y-97924476D01*
X136512505Y-97912856D01*
X136521528Y-97877711D01*
X136521528Y-97877710D01*
X136523500Y-97870030D01*
X136523500Y-97849776D01*
X136525051Y-97830065D01*
X136526980Y-97817886D01*
X136528220Y-97810057D01*
X136524059Y-97766038D01*
X136523500Y-97754181D01*
X136523500Y-91518767D01*
X136524027Y-91507584D01*
X136525702Y-91500091D01*
X136524567Y-91463961D01*
X136523562Y-91432001D01*
X136523500Y-91428043D01*
X136523500Y-91400144D01*
X136522996Y-91396153D01*
X136522063Y-91384311D01*
X136521548Y-91367899D01*
X136520674Y-91340111D01*
X136518462Y-91332497D01*
X136518461Y-91332492D01*
X136515023Y-91320659D01*
X136511012Y-91301295D01*
X136509467Y-91289064D01*
X136508474Y-91281203D01*
X136505557Y-91273836D01*
X136505556Y-91273831D01*
X136492198Y-91240092D01*
X136488354Y-91228865D01*
X136483633Y-91212616D01*
X136476018Y-91186407D01*
X136465707Y-91168972D01*
X136457012Y-91151224D01*
X136449552Y-91132383D01*
X136423564Y-91096613D01*
X136417048Y-91086693D01*
X136398580Y-91055465D01*
X136398578Y-91055462D01*
X136394542Y-91048638D01*
X136380221Y-91034317D01*
X136367380Y-91019283D01*
X136360131Y-91009306D01*
X136355472Y-91002893D01*
X136321395Y-90974702D01*
X136312616Y-90966712D01*
X134655405Y-89309500D01*
X134621379Y-89247188D01*
X134618500Y-89220405D01*
X134618500Y-89099381D01*
X134638502Y-89031260D01*
X134692158Y-88984767D01*
X134762432Y-88974663D01*
X134789449Y-88981671D01*
X134855001Y-89006703D01*
X134864899Y-89009579D01*
X134968250Y-89030606D01*
X134982299Y-89029410D01*
X134986000Y-89019065D01*
X134986000Y-83843102D01*
X134982082Y-83829758D01*
X134967806Y-83827771D01*
X134929324Y-83833660D01*
X134919288Y-83836051D01*
X134716868Y-83902212D01*
X134707359Y-83906209D01*
X134518463Y-84004542D01*
X134509738Y-84010036D01*
X134339433Y-84137905D01*
X134331726Y-84144748D01*
X134184590Y-84298717D01*
X134178109Y-84306722D01*
X134073498Y-84460074D01*
X134018587Y-84505076D01*
X133948062Y-84513247D01*
X133884315Y-84481993D01*
X133863618Y-84457509D01*
X133782822Y-84332617D01*
X133782820Y-84332614D01*
X133780014Y-84328277D01*
X133629670Y-84163051D01*
X133625619Y-84159852D01*
X133625615Y-84159848D01*
X133458414Y-84027800D01*
X133458410Y-84027798D01*
X133454359Y-84024598D01*
X133418028Y-84004542D01*
X133402136Y-83995769D01*
X133258789Y-83916638D01*
X133253920Y-83914914D01*
X133253916Y-83914912D01*
X133053087Y-83843795D01*
X133053083Y-83843794D01*
X133048212Y-83842069D01*
X133043119Y-83841162D01*
X133043116Y-83841161D01*
X132833373Y-83803800D01*
X132833367Y-83803799D01*
X132828284Y-83802894D01*
X132754452Y-83801992D01*
X132610081Y-83800228D01*
X132610079Y-83800228D01*
X132604911Y-83800165D01*
X132384091Y-83833955D01*
X132171756Y-83903357D01*
X131973607Y-84006507D01*
X131969474Y-84009610D01*
X131969471Y-84009612D01*
X131945247Y-84027800D01*
X131794965Y-84140635D01*
X131640629Y-84302138D01*
X131533201Y-84459621D01*
X131478293Y-84504621D01*
X131407768Y-84512792D01*
X131344021Y-84481538D01*
X131323324Y-84457054D01*
X131242822Y-84332617D01*
X131242820Y-84332614D01*
X131240014Y-84328277D01*
X131089670Y-84163051D01*
X131085619Y-84159852D01*
X131085615Y-84159848D01*
X130918414Y-84027800D01*
X130918410Y-84027798D01*
X130914359Y-84024598D01*
X130878028Y-84004542D01*
X130862136Y-83995769D01*
X130718789Y-83916638D01*
X130713920Y-83914914D01*
X130713916Y-83914912D01*
X130513087Y-83843795D01*
X130513083Y-83843794D01*
X130508212Y-83842069D01*
X130503119Y-83841162D01*
X130503116Y-83841161D01*
X130293373Y-83803800D01*
X130293367Y-83803799D01*
X130288284Y-83802894D01*
X130214452Y-83801992D01*
X130070081Y-83800228D01*
X130070079Y-83800228D01*
X130064911Y-83800165D01*
X129844091Y-83833955D01*
X129631756Y-83903357D01*
X129433607Y-84006507D01*
X129429474Y-84009610D01*
X129429471Y-84009612D01*
X129405247Y-84027800D01*
X129254965Y-84140635D01*
X129100629Y-84302138D01*
X128993201Y-84459621D01*
X128938293Y-84504621D01*
X128867768Y-84512792D01*
X128804021Y-84481538D01*
X128783324Y-84457054D01*
X128702822Y-84332617D01*
X128702820Y-84332614D01*
X128700014Y-84328277D01*
X128549670Y-84163051D01*
X128545619Y-84159852D01*
X128545615Y-84159848D01*
X128378414Y-84027800D01*
X128378410Y-84027798D01*
X128374359Y-84024598D01*
X128338028Y-84004542D01*
X128322136Y-83995769D01*
X128178789Y-83916638D01*
X128173920Y-83914914D01*
X128173916Y-83914912D01*
X127973087Y-83843795D01*
X127973083Y-83843794D01*
X127968212Y-83842069D01*
X127963119Y-83841162D01*
X127963116Y-83841161D01*
X127753373Y-83803800D01*
X127753367Y-83803799D01*
X127748284Y-83802894D01*
X127674452Y-83801992D01*
X127530081Y-83800228D01*
X127530079Y-83800228D01*
X127524911Y-83800165D01*
X127304091Y-83833955D01*
X127091756Y-83903357D01*
X126893607Y-84006507D01*
X126889474Y-84009610D01*
X126889471Y-84009612D01*
X126865247Y-84027800D01*
X126714965Y-84140635D01*
X126560629Y-84302138D01*
X126453201Y-84459621D01*
X126398293Y-84504621D01*
X126327768Y-84512792D01*
X126264021Y-84481538D01*
X126243324Y-84457054D01*
X126162822Y-84332617D01*
X126162820Y-84332614D01*
X126160014Y-84328277D01*
X126009670Y-84163051D01*
X126005619Y-84159852D01*
X126005615Y-84159848D01*
X125838414Y-84027800D01*
X125838410Y-84027798D01*
X125834359Y-84024598D01*
X125798028Y-84004542D01*
X125782136Y-83995769D01*
X125638789Y-83916638D01*
X125633920Y-83914914D01*
X125633916Y-83914912D01*
X125433087Y-83843795D01*
X125433083Y-83843794D01*
X125428212Y-83842069D01*
X125423119Y-83841162D01*
X125423116Y-83841161D01*
X125213373Y-83803800D01*
X125213367Y-83803799D01*
X125208284Y-83802894D01*
X125134452Y-83801992D01*
X124990081Y-83800228D01*
X124990079Y-83800228D01*
X124984911Y-83800165D01*
X124764091Y-83833955D01*
X124551756Y-83903357D01*
X124353607Y-84006507D01*
X124349474Y-84009610D01*
X124349471Y-84009612D01*
X124325247Y-84027800D01*
X124174965Y-84140635D01*
X124020629Y-84302138D01*
X123894743Y-84486680D01*
X123800688Y-84689305D01*
X123740989Y-84904570D01*
X123717251Y-85126695D01*
X123717548Y-85131848D01*
X123717548Y-85131851D01*
X123723011Y-85226590D01*
X123730110Y-85349715D01*
X123731247Y-85354761D01*
X123731248Y-85354767D01*
X123751119Y-85442939D01*
X123779222Y-85567639D01*
X123863266Y-85774616D01*
X123865965Y-85779020D01*
X123977291Y-85960688D01*
X123979987Y-85965088D01*
X124126250Y-86133938D01*
X124130230Y-86137242D01*
X124134981Y-86141187D01*
X124174616Y-86200090D01*
X124176113Y-86271071D01*
X124138997Y-86331593D01*
X124098725Y-86356112D01*
X124057675Y-86371501D01*
X123983295Y-86399385D01*
X123866739Y-86486739D01*
X123779385Y-86603295D01*
X123728255Y-86739684D01*
X123721500Y-86801866D01*
X123721500Y-88598134D01*
X123728255Y-88660316D01*
X123779385Y-88796705D01*
X123866739Y-88913261D01*
X123983295Y-89000615D01*
X124119684Y-89051745D01*
X124181866Y-89058500D01*
X124320500Y-89058500D01*
X124388621Y-89078502D01*
X124435114Y-89132158D01*
X124446500Y-89184500D01*
X124446500Y-89441233D01*
X124445973Y-89452416D01*
X124444298Y-89459909D01*
X124444547Y-89467835D01*
X124444547Y-89467836D01*
X124446438Y-89527986D01*
X124446500Y-89531945D01*
X124446500Y-89559856D01*
X124446997Y-89563790D01*
X124446997Y-89563791D01*
X124447005Y-89563856D01*
X124447938Y-89575693D01*
X124449327Y-89619889D01*
X124453685Y-89634889D01*
X124454978Y-89639339D01*
X124458987Y-89658700D01*
X124461526Y-89678797D01*
X124464445Y-89686168D01*
X124464445Y-89686170D01*
X124477804Y-89719912D01*
X124481649Y-89731142D01*
X124493982Y-89773593D01*
X124498015Y-89780412D01*
X124498017Y-89780417D01*
X124504293Y-89791028D01*
X124512988Y-89808776D01*
X124520448Y-89827617D01*
X124525110Y-89834033D01*
X124525110Y-89834034D01*
X124546436Y-89863387D01*
X124552952Y-89873307D01*
X124561083Y-89887055D01*
X124575458Y-89911362D01*
X124589779Y-89925683D01*
X124602619Y-89940716D01*
X124614528Y-89957107D01*
X124648605Y-89985298D01*
X124657384Y-89993288D01*
X126329595Y-91665500D01*
X126363621Y-91727812D01*
X126366500Y-91754595D01*
X126366500Y-95241692D01*
X126346498Y-95309813D01*
X126298683Y-95353453D01*
X126273607Y-95366507D01*
X126269474Y-95369610D01*
X126269471Y-95369612D01*
X126099100Y-95497530D01*
X126094965Y-95500635D01*
X125940629Y-95662138D01*
X125833201Y-95819621D01*
X125778293Y-95864621D01*
X125707768Y-95872792D01*
X125644021Y-95841538D01*
X125623324Y-95817054D01*
X125542822Y-95692617D01*
X125542820Y-95692614D01*
X125540014Y-95688277D01*
X125389670Y-95523051D01*
X125385619Y-95519852D01*
X125385615Y-95519848D01*
X125218414Y-95387800D01*
X125218410Y-95387798D01*
X125214359Y-95384598D01*
X125209835Y-95382101D01*
X125209831Y-95382098D01*
X125158608Y-95353822D01*
X125108636Y-95303390D01*
X125093500Y-95243513D01*
X125093500Y-91518767D01*
X125094027Y-91507584D01*
X125095702Y-91500091D01*
X125094567Y-91463961D01*
X125093562Y-91432001D01*
X125093500Y-91428043D01*
X125093500Y-91400144D01*
X125092996Y-91396153D01*
X125092063Y-91384311D01*
X125091548Y-91367899D01*
X125090674Y-91340111D01*
X125088462Y-91332497D01*
X125088461Y-91332492D01*
X125085023Y-91320659D01*
X125081012Y-91301295D01*
X125079467Y-91289064D01*
X125078474Y-91281203D01*
X125075557Y-91273836D01*
X125075556Y-91273831D01*
X125062198Y-91240092D01*
X125058354Y-91228865D01*
X125053633Y-91212616D01*
X125046018Y-91186407D01*
X125035707Y-91168972D01*
X125027012Y-91151224D01*
X125019552Y-91132383D01*
X124993564Y-91096613D01*
X124987048Y-91086693D01*
X124968580Y-91055465D01*
X124968578Y-91055462D01*
X124964542Y-91048638D01*
X124950221Y-91034317D01*
X124937380Y-91019283D01*
X124930131Y-91009306D01*
X124925472Y-91002893D01*
X124891395Y-90974702D01*
X124882616Y-90966712D01*
X123225405Y-89309500D01*
X123191379Y-89247188D01*
X123188500Y-89220405D01*
X123188500Y-83563500D01*
X123208502Y-83495379D01*
X123262158Y-83448886D01*
X123314500Y-83437500D01*
X145082233Y-83437500D01*
X145093416Y-83438027D01*
X145100909Y-83439702D01*
X145108835Y-83439453D01*
X145108836Y-83439453D01*
X145168986Y-83437562D01*
X145172945Y-83437500D01*
X145200856Y-83437500D01*
X145204791Y-83437003D01*
X145204856Y-83436995D01*
X145216693Y-83436062D01*
X145248951Y-83435048D01*
X145252970Y-83434922D01*
X145260889Y-83434673D01*
X145280343Y-83429021D01*
X145299700Y-83425013D01*
X145311930Y-83423468D01*
X145311931Y-83423468D01*
X145319797Y-83422474D01*
X145327168Y-83419555D01*
X145327170Y-83419555D01*
X145360912Y-83406196D01*
X145372142Y-83402351D01*
X145406983Y-83392229D01*
X145406984Y-83392229D01*
X145414593Y-83390018D01*
X145421412Y-83385985D01*
X145421417Y-83385983D01*
X145432028Y-83379707D01*
X145449776Y-83371012D01*
X145468617Y-83363552D01*
X145504387Y-83337564D01*
X145514307Y-83331048D01*
X145545535Y-83312580D01*
X145545538Y-83312578D01*
X145552362Y-83308542D01*
X145566683Y-83294221D01*
X145581717Y-83281380D01*
X145591694Y-83274131D01*
X145598107Y-83269472D01*
X145626298Y-83235395D01*
X145634288Y-83226616D01*
X152792253Y-76068652D01*
X152800539Y-76061112D01*
X152807018Y-76057000D01*
X152853644Y-76007348D01*
X152856398Y-76004507D01*
X152876135Y-75984770D01*
X152878615Y-75981573D01*
X152886320Y-75972551D01*
X152905873Y-75951729D01*
X152916586Y-75940321D01*
X152920405Y-75933375D01*
X152920407Y-75933372D01*
X152926348Y-75922566D01*
X152937199Y-75906047D01*
X152944758Y-75896301D01*
X152949614Y-75890041D01*
X152952759Y-75882772D01*
X152952762Y-75882768D01*
X152967174Y-75849463D01*
X152972391Y-75838813D01*
X152993695Y-75800060D01*
X152998733Y-75780437D01*
X153005137Y-75761734D01*
X153010033Y-75750420D01*
X153010033Y-75750419D01*
X153013181Y-75743145D01*
X153014420Y-75735322D01*
X153014423Y-75735312D01*
X153020099Y-75699476D01*
X153022505Y-75687856D01*
X153031528Y-75652711D01*
X153031528Y-75652710D01*
X153033500Y-75645030D01*
X153033500Y-75624776D01*
X153035051Y-75605065D01*
X153036980Y-75592886D01*
X153038220Y-75585057D01*
X153034059Y-75541038D01*
X153033500Y-75529181D01*
X153033500Y-74940427D01*
X153053502Y-74872306D01*
X153094618Y-74832550D01*
X153097994Y-74830896D01*
X153279860Y-74701173D01*
X153438096Y-74543489D01*
X153568453Y-74362077D01*
X153569640Y-74362930D01*
X153616960Y-74319362D01*
X153686897Y-74307145D01*
X153752338Y-74334678D01*
X153780166Y-74366511D01*
X153837694Y-74460388D01*
X153843777Y-74468699D01*
X153983213Y-74629667D01*
X153990580Y-74636883D01*
X154154434Y-74772916D01*
X154162881Y-74778831D01*
X154346756Y-74886279D01*
X154356042Y-74890729D01*
X154555001Y-74966703D01*
X154564899Y-74969579D01*
X154668250Y-74990606D01*
X154682299Y-74989410D01*
X154686000Y-74979065D01*
X154686000Y-74978517D01*
X155194000Y-74978517D01*
X155198064Y-74992359D01*
X155211478Y-74994393D01*
X155218184Y-74993534D01*
X155228262Y-74991392D01*
X155432255Y-74930191D01*
X155441842Y-74926433D01*
X155633095Y-74832739D01*
X155641945Y-74827464D01*
X155815328Y-74703792D01*
X155823200Y-74697139D01*
X155974052Y-74546812D01*
X155980730Y-74538965D01*
X156108022Y-74361819D01*
X156109279Y-74362722D01*
X156156373Y-74319362D01*
X156226311Y-74307145D01*
X156291751Y-74334678D01*
X156319579Y-74366511D01*
X156379987Y-74465088D01*
X156526250Y-74633938D01*
X156698126Y-74776632D01*
X156891000Y-74889338D01*
X157099692Y-74969030D01*
X157104760Y-74970061D01*
X157104763Y-74970062D01*
X157199862Y-74989410D01*
X157318597Y-75013567D01*
X157323772Y-75013757D01*
X157323774Y-75013757D01*
X157536673Y-75021564D01*
X157536677Y-75021564D01*
X157541837Y-75021753D01*
X157546957Y-75021097D01*
X157546959Y-75021097D01*
X157758288Y-74994025D01*
X157758289Y-74994025D01*
X157763416Y-74993368D01*
X157768366Y-74991883D01*
X157972429Y-74930661D01*
X157972434Y-74930659D01*
X157977384Y-74929174D01*
X158177994Y-74830896D01*
X158359860Y-74701173D01*
X158518096Y-74543489D01*
X158648453Y-74362077D01*
X158661995Y-74334678D01*
X158745136Y-74166453D01*
X158745137Y-74166451D01*
X158747430Y-74161811D01*
X158812370Y-73948069D01*
X158841529Y-73726590D01*
X158843156Y-73660000D01*
X158824852Y-73437361D01*
X158770431Y-73220702D01*
X158681354Y-73015840D01*
X158560014Y-72828277D01*
X158409670Y-72663051D01*
X158405619Y-72659852D01*
X158405615Y-72659848D01*
X158238414Y-72527800D01*
X158238410Y-72527798D01*
X158234359Y-72524598D01*
X158193053Y-72501796D01*
X158143084Y-72451364D01*
X158128312Y-72381921D01*
X158153428Y-72315516D01*
X158180780Y-72288909D01*
X158227584Y-72255524D01*
X158359860Y-72161173D01*
X158404993Y-72116198D01*
X158489050Y-72032434D01*
X158518096Y-72003489D01*
X158536326Y-71978120D01*
X158645435Y-71826277D01*
X158648453Y-71822077D01*
X158661995Y-71794678D01*
X158745136Y-71626453D01*
X158745137Y-71626451D01*
X158747430Y-71621811D01*
X158812370Y-71408069D01*
X158841529Y-71186590D01*
X158843156Y-71120000D01*
X158824852Y-70897361D01*
X158770431Y-70680702D01*
X158681354Y-70475840D01*
X158560014Y-70288277D01*
X158409670Y-70123051D01*
X158405619Y-70119852D01*
X158405615Y-70119848D01*
X158238414Y-69987800D01*
X158238410Y-69987798D01*
X158234359Y-69984598D01*
X158198028Y-69964542D01*
X158182136Y-69955769D01*
X158038789Y-69876638D01*
X158033920Y-69874914D01*
X158033916Y-69874912D01*
X157833087Y-69803795D01*
X157833083Y-69803794D01*
X157828212Y-69802069D01*
X157823119Y-69801162D01*
X157823116Y-69801161D01*
X157613373Y-69763800D01*
X157613367Y-69763799D01*
X157608284Y-69762894D01*
X157534452Y-69761992D01*
X157390081Y-69760228D01*
X157390079Y-69760228D01*
X157384911Y-69760165D01*
X157164091Y-69793955D01*
X156951756Y-69863357D01*
X156753607Y-69966507D01*
X156749474Y-69969610D01*
X156749471Y-69969612D01*
X156725247Y-69987800D01*
X156574965Y-70100635D01*
X156420629Y-70262138D01*
X156313204Y-70419618D01*
X156312898Y-70420066D01*
X156257987Y-70465069D01*
X156187462Y-70473240D01*
X156123715Y-70441986D01*
X156103018Y-70417502D01*
X156022426Y-70292926D01*
X156016136Y-70284757D01*
X155872806Y-70127240D01*
X155865273Y-70120215D01*
X155698139Y-69988222D01*
X155689552Y-69982517D01*
X155503117Y-69879599D01*
X155493705Y-69875369D01*
X155292959Y-69804280D01*
X155282988Y-69801646D01*
X155211837Y-69788972D01*
X155198540Y-69790432D01*
X155194000Y-69804989D01*
X155194000Y-74978517D01*
X154686000Y-74978517D01*
X154686000Y-69803102D01*
X154682082Y-69789758D01*
X154667806Y-69787771D01*
X154629324Y-69793660D01*
X154619288Y-69796051D01*
X154416868Y-69862212D01*
X154407359Y-69866209D01*
X154218463Y-69964542D01*
X154209738Y-69970036D01*
X154039433Y-70097905D01*
X154031726Y-70104748D01*
X153884590Y-70258717D01*
X153878109Y-70266722D01*
X153773498Y-70420074D01*
X153718587Y-70465076D01*
X153648062Y-70473247D01*
X153584315Y-70441993D01*
X153563618Y-70417509D01*
X153482822Y-70292617D01*
X153482820Y-70292614D01*
X153480014Y-70288277D01*
X153329670Y-70123051D01*
X153325619Y-70119852D01*
X153325615Y-70119848D01*
X153158414Y-69987800D01*
X153158410Y-69987798D01*
X153154359Y-69984598D01*
X153118028Y-69964542D01*
X153102136Y-69955769D01*
X152958789Y-69876638D01*
X152953920Y-69874914D01*
X152953916Y-69874912D01*
X152753087Y-69803795D01*
X152753083Y-69803794D01*
X152748212Y-69802069D01*
X152743119Y-69801162D01*
X152743116Y-69801161D01*
X152533373Y-69763800D01*
X152533367Y-69763799D01*
X152528284Y-69762894D01*
X152454452Y-69761992D01*
X152310081Y-69760228D01*
X152310079Y-69760228D01*
X152304911Y-69760165D01*
X152084091Y-69793955D01*
X151871756Y-69863357D01*
X151673607Y-69966507D01*
X151669474Y-69969610D01*
X151669471Y-69969612D01*
X151645247Y-69987800D01*
X151494965Y-70100635D01*
X151340629Y-70262138D01*
X151233201Y-70419621D01*
X151178293Y-70464621D01*
X151107768Y-70472792D01*
X151044021Y-70441538D01*
X151023324Y-70417054D01*
X150942822Y-70292617D01*
X150942820Y-70292614D01*
X150940014Y-70288277D01*
X150789670Y-70123051D01*
X150785619Y-70119852D01*
X150785615Y-70119848D01*
X150618414Y-69987800D01*
X150618410Y-69987798D01*
X150614359Y-69984598D01*
X150578028Y-69964542D01*
X150562136Y-69955769D01*
X150418789Y-69876638D01*
X150413920Y-69874914D01*
X150413916Y-69874912D01*
X150213087Y-69803795D01*
X150213083Y-69803794D01*
X150208212Y-69802069D01*
X150203119Y-69801162D01*
X150203116Y-69801161D01*
X149993373Y-69763800D01*
X149993367Y-69763799D01*
X149988284Y-69762894D01*
X149914452Y-69761992D01*
X149770081Y-69760228D01*
X149770079Y-69760228D01*
X149764911Y-69760165D01*
X149544091Y-69793955D01*
X149331756Y-69863357D01*
X149133607Y-69966507D01*
X149129474Y-69969610D01*
X149129471Y-69969612D01*
X149105247Y-69987800D01*
X148954965Y-70100635D01*
X148800629Y-70262138D01*
X148693201Y-70419621D01*
X148638293Y-70464621D01*
X148567768Y-70472792D01*
X148504021Y-70441538D01*
X148483324Y-70417054D01*
X148402822Y-70292617D01*
X148402820Y-70292614D01*
X148400014Y-70288277D01*
X148249670Y-70123051D01*
X148245619Y-70119852D01*
X148245615Y-70119848D01*
X148078414Y-69987800D01*
X148078410Y-69987798D01*
X148074359Y-69984598D01*
X148038028Y-69964542D01*
X148022136Y-69955769D01*
X147878789Y-69876638D01*
X147873920Y-69874914D01*
X147873916Y-69874912D01*
X147673087Y-69803795D01*
X147673083Y-69803794D01*
X147668212Y-69802069D01*
X147663119Y-69801162D01*
X147663116Y-69801161D01*
X147453373Y-69763800D01*
X147453367Y-69763799D01*
X147448284Y-69762894D01*
X147374452Y-69761992D01*
X147230081Y-69760228D01*
X147230079Y-69760228D01*
X147224911Y-69760165D01*
X147004091Y-69793955D01*
X146791756Y-69863357D01*
X146593607Y-69966507D01*
X146589474Y-69969610D01*
X146589471Y-69969612D01*
X146565247Y-69987800D01*
X146414965Y-70100635D01*
X146260629Y-70262138D01*
X146153201Y-70419621D01*
X146098293Y-70464621D01*
X146027768Y-70472792D01*
X145964021Y-70441538D01*
X145943324Y-70417054D01*
X145862822Y-70292617D01*
X145862820Y-70292614D01*
X145860014Y-70288277D01*
X145709670Y-70123051D01*
X145705619Y-70119852D01*
X145705615Y-70119848D01*
X145538414Y-69987800D01*
X145538410Y-69987798D01*
X145534359Y-69984598D01*
X145498028Y-69964542D01*
X145482136Y-69955769D01*
X145338789Y-69876638D01*
X145333920Y-69874914D01*
X145333916Y-69874912D01*
X145133087Y-69803795D01*
X145133083Y-69803794D01*
X145128212Y-69802069D01*
X145123119Y-69801162D01*
X145123116Y-69801161D01*
X144913373Y-69763800D01*
X144913367Y-69763799D01*
X144908284Y-69762894D01*
X144834452Y-69761992D01*
X144690081Y-69760228D01*
X144690079Y-69760228D01*
X144684911Y-69760165D01*
X144464091Y-69793955D01*
X144251756Y-69863357D01*
X144053607Y-69966507D01*
X144049474Y-69969610D01*
X144049471Y-69969612D01*
X144025247Y-69987800D01*
X143874965Y-70100635D01*
X143720629Y-70262138D01*
X143594743Y-70446680D01*
X143500688Y-70649305D01*
X143440989Y-70864570D01*
X143417251Y-71086695D01*
X143417548Y-71091848D01*
X143417548Y-71091851D01*
X143423011Y-71186590D01*
X143430110Y-71309715D01*
X143431247Y-71314761D01*
X143431248Y-71314767D01*
X143463453Y-71457668D01*
X143458917Y-71528520D01*
X143429631Y-71574464D01*
X143117747Y-71886348D01*
X143109461Y-71893888D01*
X143102982Y-71898000D01*
X143097557Y-71903777D01*
X143056357Y-71947651D01*
X143053602Y-71950493D01*
X143033865Y-71970230D01*
X143031385Y-71973427D01*
X143023682Y-71982447D01*
X142993414Y-72014679D01*
X142989595Y-72021625D01*
X142989593Y-72021628D01*
X142983652Y-72032434D01*
X142972801Y-72048953D01*
X142960386Y-72064959D01*
X142957241Y-72072228D01*
X142957238Y-72072232D01*
X142942826Y-72105537D01*
X142937609Y-72116187D01*
X142916305Y-72154940D01*
X142914334Y-72162615D01*
X142914334Y-72162616D01*
X142911267Y-72174562D01*
X142904863Y-72193266D01*
X142896819Y-72211855D01*
X142895580Y-72219678D01*
X142895577Y-72219688D01*
X142889901Y-72255524D01*
X142887495Y-72267144D01*
X142876500Y-72309970D01*
X142876500Y-72330224D01*
X142874949Y-72349934D01*
X142871780Y-72369943D01*
X142874709Y-72400923D01*
X142875941Y-72413961D01*
X142876500Y-72425819D01*
X142876500Y-75250406D01*
X142856498Y-75318527D01*
X142839595Y-75339501D01*
X141379500Y-76799595D01*
X141317188Y-76833621D01*
X141290405Y-76836500D01*
X121236767Y-76836500D01*
X121225584Y-76835973D01*
X121218091Y-76834298D01*
X121210165Y-76834547D01*
X121210164Y-76834547D01*
X121150001Y-76836438D01*
X121146043Y-76836500D01*
X121118144Y-76836500D01*
X121114154Y-76837004D01*
X121102320Y-76837936D01*
X121058111Y-76839326D01*
X121050497Y-76841538D01*
X121050492Y-76841539D01*
X121038659Y-76844977D01*
X121019296Y-76848988D01*
X120999203Y-76851526D01*
X120991836Y-76854443D01*
X120991831Y-76854444D01*
X120958092Y-76867802D01*
X120946865Y-76871646D01*
X120904407Y-76883982D01*
X120897581Y-76888019D01*
X120886972Y-76894293D01*
X120869224Y-76902988D01*
X120850383Y-76910448D01*
X120843967Y-76915110D01*
X120843966Y-76915110D01*
X120814613Y-76936436D01*
X120804693Y-76942952D01*
X120773465Y-76961420D01*
X120773462Y-76961422D01*
X120766638Y-76965458D01*
X120752317Y-76979779D01*
X120737284Y-76992619D01*
X120720893Y-77004528D01*
X120715842Y-77010634D01*
X120692702Y-77038605D01*
X120684712Y-77047384D01*
X117717747Y-80014348D01*
X117709461Y-80021888D01*
X117702982Y-80026000D01*
X117697557Y-80031777D01*
X117656357Y-80075651D01*
X117653602Y-80078493D01*
X117633865Y-80098230D01*
X117631385Y-80101427D01*
X117623682Y-80110447D01*
X117593414Y-80142679D01*
X117589595Y-80149625D01*
X117589593Y-80149628D01*
X117583652Y-80160434D01*
X117572801Y-80176953D01*
X117560386Y-80192959D01*
X117557241Y-80200228D01*
X117557238Y-80200232D01*
X117542826Y-80233537D01*
X117537609Y-80244187D01*
X117516305Y-80282940D01*
X117514334Y-80290615D01*
X117514334Y-80290616D01*
X117511267Y-80302562D01*
X117504863Y-80321266D01*
X117496819Y-80339855D01*
X117495580Y-80347678D01*
X117495577Y-80347688D01*
X117489901Y-80383524D01*
X117487495Y-80395144D01*
X117476500Y-80437970D01*
X117476500Y-80458224D01*
X117474949Y-80477934D01*
X117471780Y-80497943D01*
X117472526Y-80505835D01*
X117475941Y-80541961D01*
X117476500Y-80553819D01*
X117476500Y-88585405D01*
X117456498Y-88653526D01*
X117439595Y-88674500D01*
X115177747Y-90936348D01*
X115169461Y-90943888D01*
X115162982Y-90948000D01*
X115157557Y-90953777D01*
X115116357Y-90997651D01*
X115113602Y-91000493D01*
X115093865Y-91020230D01*
X115091385Y-91023427D01*
X115083682Y-91032447D01*
X115053414Y-91064679D01*
X115049595Y-91071625D01*
X115049593Y-91071628D01*
X115043652Y-91082434D01*
X115032801Y-91098953D01*
X115020386Y-91114959D01*
X115017241Y-91122228D01*
X115017238Y-91122232D01*
X115002826Y-91155537D01*
X114997609Y-91166187D01*
X114976305Y-91204940D01*
X114974334Y-91212615D01*
X114974334Y-91212616D01*
X114971267Y-91224562D01*
X114964863Y-91243266D01*
X114956819Y-91261855D01*
X114955580Y-91269678D01*
X114955577Y-91269688D01*
X114949901Y-91305524D01*
X114947495Y-91317144D01*
X114936500Y-91359970D01*
X114936500Y-91380224D01*
X114934949Y-91399934D01*
X114931780Y-91419943D01*
X114932526Y-91427835D01*
X114935941Y-91463961D01*
X114936500Y-91475819D01*
X114936500Y-95035500D01*
X114916498Y-95103621D01*
X114862842Y-95150114D01*
X114810500Y-95161500D01*
X113401866Y-95161500D01*
X113339684Y-95168255D01*
X113203295Y-95219385D01*
X113086739Y-95306739D01*
X112999385Y-95423295D01*
X112948255Y-95559684D01*
X112941500Y-95621866D01*
X112941500Y-96576852D01*
X112921498Y-96644973D01*
X112904595Y-96665947D01*
X112483595Y-97086947D01*
X112421283Y-97120973D01*
X112350468Y-97115908D01*
X112293632Y-97073361D01*
X112268821Y-97006841D01*
X112268500Y-96997852D01*
X112268500Y-69268250D01*
X112270246Y-69247345D01*
X112272770Y-69232344D01*
X112272770Y-69232341D01*
X112273576Y-69227552D01*
X112273704Y-69217029D01*
X112294533Y-69149157D01*
X112348750Y-69103320D01*
X112388906Y-69095094D01*
X112388723Y-69093691D01*
X112388724Y-69093691D01*
X112420286Y-69089564D01*
X112436621Y-69088500D01*
X121235633Y-69088500D01*
X121255018Y-69090000D01*
G37*
G04 #@! TD.AperFunction*
M02*
