G04 #@! TF.GenerationSoftware,KiCad,Pcbnew,6.0.9-8da3e8f707~116~ubuntu20.04.1*
G04 #@! TF.CreationDate,2022-12-23T11:26:32+01:00*
G04 #@! TF.ProjectId,z_pmod,7a5f706d-6f64-42e6-9b69-6361645f7063,rev?*
G04 #@! TF.SameCoordinates,Original*
G04 #@! TF.FileFunction,Legend,Top*
G04 #@! TF.FilePolarity,Positive*
%FSLAX46Y46*%
G04 Gerber Fmt 4.6, Leading zero omitted, Abs format (unit mm)*
G04 Created by KiCad (PCBNEW 6.0.9-8da3e8f707~116~ubuntu20.04.1) date 2022-12-23 11:26:32*
%MOMM*%
%LPD*%
G01*
G04 APERTURE LIST*
%ADD10C,0.125000*%
%ADD11C,0.150000*%
%ADD12C,0.120000*%
%ADD13C,2.500000*%
%ADD14R,1.700000X1.700000*%
%ADD15O,1.700000X1.700000*%
G04 APERTURE END LIST*
D10*
X152346428Y-94317892D02*
X152382142Y-94232178D01*
X152417857Y-94203607D01*
X152489285Y-94175035D01*
X152596428Y-94175035D01*
X152667857Y-94203607D01*
X152703571Y-94232178D01*
X152739285Y-94289321D01*
X152739285Y-94517892D01*
X151989285Y-94517892D01*
X151989285Y-94317892D01*
X152025000Y-94260750D01*
X152060714Y-94232178D01*
X152132142Y-94203607D01*
X152203571Y-94203607D01*
X152275000Y-94232178D01*
X152310714Y-94260750D01*
X152346428Y-94317892D01*
X152346428Y-94517892D01*
X152060714Y-93946464D02*
X152025000Y-93917892D01*
X151989285Y-93860750D01*
X151989285Y-93717892D01*
X152025000Y-93660750D01*
X152060714Y-93632178D01*
X152132142Y-93603607D01*
X152203571Y-93603607D01*
X152310714Y-93632178D01*
X152739285Y-93975035D01*
X152739285Y-93603607D01*
X151989285Y-93232178D02*
X151989285Y-93175035D01*
X152025000Y-93117892D01*
X152060714Y-93089321D01*
X152132142Y-93060750D01*
X152275000Y-93032178D01*
X152453571Y-93032178D01*
X152596428Y-93060750D01*
X152667857Y-93089321D01*
X152703571Y-93117892D01*
X152739285Y-93175035D01*
X152739285Y-93232178D01*
X152703571Y-93289321D01*
X152667857Y-93317892D01*
X152596428Y-93346464D01*
X152453571Y-93375035D01*
X152275000Y-93375035D01*
X152132142Y-93346464D01*
X152060714Y-93317892D01*
X152025000Y-93289321D01*
X151989285Y-93232178D01*
X151989285Y-92317892D02*
X152596428Y-92317892D01*
X152667857Y-92289321D01*
X152703571Y-92260750D01*
X152739285Y-92203607D01*
X152739285Y-92089321D01*
X152703571Y-92032178D01*
X152667857Y-92003607D01*
X152596428Y-91975035D01*
X151989285Y-91975035D01*
X152739285Y-91375035D02*
X152739285Y-91717892D01*
X152739285Y-91546464D02*
X151989285Y-91546464D01*
X152096428Y-91603607D01*
X152167857Y-91660750D01*
X152203571Y-91717892D01*
X151989285Y-90832178D02*
X151989285Y-91117892D01*
X152346428Y-91146464D01*
X152310714Y-91117892D01*
X152275000Y-91060750D01*
X152275000Y-90917892D01*
X152310714Y-90860750D01*
X152346428Y-90832178D01*
X152417857Y-90803607D01*
X152596428Y-90803607D01*
X152667857Y-90832178D01*
X152703571Y-90860750D01*
X152739285Y-90917892D01*
X152739285Y-91060750D01*
X152703571Y-91117892D01*
X152667857Y-91146464D01*
X121902142Y-94403607D02*
X122259285Y-94403607D01*
X121509285Y-94603607D02*
X121902142Y-94403607D01*
X121509285Y-94203607D01*
X121509285Y-94060750D02*
X121509285Y-93660750D01*
X122259285Y-93917892D01*
X121902142Y-92860750D02*
X122259285Y-92860750D01*
X121509285Y-93060750D02*
X121902142Y-92860750D01*
X121509285Y-92660750D01*
X122259285Y-92432178D02*
X122259285Y-92317892D01*
X122223571Y-92260750D01*
X122187857Y-92232178D01*
X122080714Y-92175035D01*
X121937857Y-92146464D01*
X121652142Y-92146464D01*
X121580714Y-92175035D01*
X121545000Y-92203607D01*
X121509285Y-92260750D01*
X121509285Y-92375035D01*
X121545000Y-92432178D01*
X121580714Y-92460750D01*
X121652142Y-92489321D01*
X121830714Y-92489321D01*
X121902142Y-92460750D01*
X121937857Y-92432178D01*
X121973571Y-92375035D01*
X121973571Y-92260750D01*
X121937857Y-92203607D01*
X121902142Y-92175035D01*
X121830714Y-92146464D01*
D11*
X143676952Y-82335714D02*
X144057904Y-82335714D01*
X143819809Y-82002380D02*
X143819809Y-82859523D01*
X143867428Y-82954761D01*
X143962666Y-83002380D01*
X144057904Y-83002380D01*
X144534095Y-83002380D02*
X144438857Y-82954761D01*
X144391238Y-82907142D01*
X144343619Y-82811904D01*
X144343619Y-82526190D01*
X144391238Y-82430952D01*
X144438857Y-82383333D01*
X144534095Y-82335714D01*
X144676952Y-82335714D01*
X144772190Y-82383333D01*
X144819809Y-82430952D01*
X144867428Y-82526190D01*
X144867428Y-82811904D01*
X144819809Y-82907142D01*
X144772190Y-82954761D01*
X144676952Y-83002380D01*
X144534095Y-83002380D01*
X145296000Y-82621428D02*
X146057904Y-82621428D01*
X146819809Y-82002380D02*
X146819809Y-82716666D01*
X146772190Y-82859523D01*
X146676952Y-82954761D01*
X146534095Y-83002380D01*
X146438857Y-83002380D01*
X147724571Y-82002380D02*
X147534095Y-82002380D01*
X147438857Y-82050000D01*
X147391238Y-82097619D01*
X147296000Y-82240476D01*
X147248380Y-82430952D01*
X147248380Y-82811904D01*
X147296000Y-82907142D01*
X147343619Y-82954761D01*
X147438857Y-83002380D01*
X147629333Y-83002380D01*
X147724571Y-82954761D01*
X147772190Y-82907142D01*
X147819809Y-82811904D01*
X147819809Y-82573809D01*
X147772190Y-82478571D01*
X147724571Y-82430952D01*
X147629333Y-82383333D01*
X147438857Y-82383333D01*
X147343619Y-82430952D01*
X147296000Y-82478571D01*
X147248380Y-82573809D01*
D10*
X150127857Y-94175035D02*
X150163571Y-94203607D01*
X150199285Y-94289321D01*
X150199285Y-94346464D01*
X150163571Y-94432178D01*
X150092142Y-94489321D01*
X150020714Y-94517892D01*
X149877857Y-94546464D01*
X149770714Y-94546464D01*
X149627857Y-94517892D01*
X149556428Y-94489321D01*
X149485000Y-94432178D01*
X149449285Y-94346464D01*
X149449285Y-94289321D01*
X149485000Y-94203607D01*
X149520714Y-94175035D01*
X149520714Y-93946464D02*
X149485000Y-93917892D01*
X149449285Y-93860750D01*
X149449285Y-93717892D01*
X149485000Y-93660750D01*
X149520714Y-93632178D01*
X149592142Y-93603607D01*
X149663571Y-93603607D01*
X149770714Y-93632178D01*
X150199285Y-93975035D01*
X150199285Y-93603607D01*
X149449285Y-93232178D02*
X149449285Y-93175035D01*
X149485000Y-93117892D01*
X149520714Y-93089321D01*
X149592142Y-93060750D01*
X149735000Y-93032178D01*
X149913571Y-93032178D01*
X150056428Y-93060750D01*
X150127857Y-93089321D01*
X150163571Y-93117892D01*
X150199285Y-93175035D01*
X150199285Y-93232178D01*
X150163571Y-93289321D01*
X150127857Y-93317892D01*
X150056428Y-93346464D01*
X149913571Y-93375035D01*
X149735000Y-93375035D01*
X149592142Y-93346464D01*
X149520714Y-93317892D01*
X149485000Y-93289321D01*
X149449285Y-93232178D01*
X150199285Y-92317892D02*
X149449285Y-92317892D01*
X149449285Y-92089321D01*
X149485000Y-92032178D01*
X149520714Y-92003607D01*
X149592142Y-91975035D01*
X149699285Y-91975035D01*
X149770714Y-92003607D01*
X149806428Y-92032178D01*
X149842142Y-92089321D01*
X149842142Y-92317892D01*
X150199285Y-91403607D02*
X150199285Y-91746464D01*
X150199285Y-91575035D02*
X149449285Y-91575035D01*
X149556428Y-91632178D01*
X149627857Y-91689321D01*
X149663571Y-91746464D01*
X149699285Y-90889321D02*
X150199285Y-90889321D01*
X149413571Y-91032178D02*
X149949285Y-91175035D01*
X149949285Y-90803607D01*
X116429285Y-94517892D02*
X117036428Y-94517892D01*
X117107857Y-94489321D01*
X117143571Y-94460750D01*
X117179285Y-94403607D01*
X117179285Y-94289321D01*
X117143571Y-94232178D01*
X117107857Y-94203607D01*
X117036428Y-94175035D01*
X116429285Y-94175035D01*
X116429285Y-93946464D02*
X116429285Y-93546464D01*
X117179285Y-93803607D01*
X116429285Y-92946464D02*
X116429285Y-92603607D01*
X117179285Y-92775035D02*
X116429285Y-92775035D01*
X117179285Y-92375035D02*
X117179285Y-92260750D01*
X117143571Y-92203607D01*
X117107857Y-92175035D01*
X117000714Y-92117892D01*
X116857857Y-92089321D01*
X116572142Y-92089321D01*
X116500714Y-92117892D01*
X116465000Y-92146464D01*
X116429285Y-92203607D01*
X116429285Y-92317892D01*
X116465000Y-92375035D01*
X116500714Y-92403607D01*
X116572142Y-92432178D01*
X116750714Y-92432178D01*
X116822142Y-92403607D01*
X116857857Y-92375035D01*
X116893571Y-92317892D01*
X116893571Y-92203607D01*
X116857857Y-92146464D01*
X116822142Y-92117892D01*
X116750714Y-92089321D01*
X126589285Y-94517892D02*
X127196428Y-94517892D01*
X127267857Y-94489321D01*
X127303571Y-94460750D01*
X127339285Y-94403607D01*
X127339285Y-94289321D01*
X127303571Y-94232178D01*
X127267857Y-94203607D01*
X127196428Y-94175035D01*
X126589285Y-94175035D01*
X127339285Y-93575035D02*
X127339285Y-93917892D01*
X127339285Y-93746464D02*
X126589285Y-93746464D01*
X126696428Y-93803607D01*
X126767857Y-93860750D01*
X126803571Y-93917892D01*
X126589285Y-93375035D02*
X126589285Y-93003607D01*
X126875000Y-93203607D01*
X126875000Y-93117892D01*
X126910714Y-93060750D01*
X126946428Y-93032178D01*
X127017857Y-93003607D01*
X127196428Y-93003607D01*
X127267857Y-93032178D01*
X127303571Y-93060750D01*
X127339285Y-93117892D01*
X127339285Y-93289321D01*
X127303571Y-93346464D01*
X127267857Y-93375035D01*
X126589285Y-92375035D02*
X126589285Y-92032178D01*
X127339285Y-92203607D02*
X126589285Y-92203607D01*
X127339285Y-91517892D02*
X127339285Y-91860750D01*
X127339285Y-91689321D02*
X126589285Y-91689321D01*
X126696428Y-91746464D01*
X126767857Y-91803607D01*
X126803571Y-91860750D01*
X127339285Y-90946464D02*
X127339285Y-91289321D01*
X127339285Y-91117892D02*
X126589285Y-91117892D01*
X126696428Y-91175035D01*
X126767857Y-91232178D01*
X126803571Y-91289321D01*
D11*
X114127595Y-71994380D02*
X114127595Y-70994380D01*
X114365690Y-70994380D01*
X114508547Y-71042000D01*
X114603785Y-71137238D01*
X114651404Y-71232476D01*
X114699023Y-71422952D01*
X114699023Y-71565809D01*
X114651404Y-71756285D01*
X114603785Y-71851523D01*
X114508547Y-71946761D01*
X114365690Y-71994380D01*
X114127595Y-71994380D01*
X115508547Y-71946761D02*
X115413309Y-71994380D01*
X115222833Y-71994380D01*
X115127595Y-71946761D01*
X115079976Y-71851523D01*
X115079976Y-71470571D01*
X115127595Y-71375333D01*
X115222833Y-71327714D01*
X115413309Y-71327714D01*
X115508547Y-71375333D01*
X115556166Y-71470571D01*
X115556166Y-71565809D01*
X115079976Y-71661047D01*
X115937119Y-71946761D02*
X116032357Y-71994380D01*
X116222833Y-71994380D01*
X116318071Y-71946761D01*
X116365690Y-71851523D01*
X116365690Y-71803904D01*
X116318071Y-71708666D01*
X116222833Y-71661047D01*
X116079976Y-71661047D01*
X115984738Y-71613428D01*
X115937119Y-71518190D01*
X115937119Y-71470571D01*
X115984738Y-71375333D01*
X116079976Y-71327714D01*
X116222833Y-71327714D01*
X116318071Y-71375333D01*
X116794261Y-71994380D02*
X116794261Y-71327714D01*
X116794261Y-70994380D02*
X116746642Y-71042000D01*
X116794261Y-71089619D01*
X116841880Y-71042000D01*
X116794261Y-70994380D01*
X116794261Y-71089619D01*
X117699023Y-71327714D02*
X117699023Y-72137238D01*
X117651404Y-72232476D01*
X117603785Y-72280095D01*
X117508547Y-72327714D01*
X117365690Y-72327714D01*
X117270452Y-72280095D01*
X117699023Y-71946761D02*
X117603785Y-71994380D01*
X117413309Y-71994380D01*
X117318071Y-71946761D01*
X117270452Y-71899142D01*
X117222833Y-71803904D01*
X117222833Y-71518190D01*
X117270452Y-71422952D01*
X117318071Y-71375333D01*
X117413309Y-71327714D01*
X117603785Y-71327714D01*
X117699023Y-71375333D01*
X118175214Y-71327714D02*
X118175214Y-71994380D01*
X118175214Y-71422952D02*
X118222833Y-71375333D01*
X118318071Y-71327714D01*
X118460928Y-71327714D01*
X118556166Y-71375333D01*
X118603785Y-71470571D01*
X118603785Y-71994380D01*
X119460928Y-71946761D02*
X119365690Y-71994380D01*
X119175214Y-71994380D01*
X119079976Y-71946761D01*
X119032357Y-71851523D01*
X119032357Y-71470571D01*
X119079976Y-71375333D01*
X119175214Y-71327714D01*
X119365690Y-71327714D01*
X119460928Y-71375333D01*
X119508547Y-71470571D01*
X119508547Y-71565809D01*
X119032357Y-71661047D01*
X120365690Y-71994380D02*
X120365690Y-70994380D01*
X120365690Y-71946761D02*
X120270452Y-71994380D01*
X120079976Y-71994380D01*
X119984738Y-71946761D01*
X119937119Y-71899142D01*
X119889500Y-71803904D01*
X119889500Y-71518190D01*
X119937119Y-71422952D01*
X119984738Y-71375333D01*
X120079976Y-71327714D01*
X120270452Y-71327714D01*
X120365690Y-71375333D01*
X114127595Y-73604380D02*
X114127595Y-72604380D01*
X114127595Y-72985333D02*
X114222833Y-72937714D01*
X114413309Y-72937714D01*
X114508547Y-72985333D01*
X114556166Y-73032952D01*
X114603785Y-73128190D01*
X114603785Y-73413904D01*
X114556166Y-73509142D01*
X114508547Y-73556761D01*
X114413309Y-73604380D01*
X114222833Y-73604380D01*
X114127595Y-73556761D01*
X114937119Y-72937714D02*
X115175214Y-73604380D01*
X115413309Y-72937714D02*
X115175214Y-73604380D01*
X115079976Y-73842476D01*
X115032357Y-73890095D01*
X114937119Y-73937714D01*
X115794261Y-73509142D02*
X115841880Y-73556761D01*
X115794261Y-73604380D01*
X115746642Y-73556761D01*
X115794261Y-73509142D01*
X115794261Y-73604380D01*
X115794261Y-72985333D02*
X115841880Y-73032952D01*
X115794261Y-73080571D01*
X115746642Y-73032952D01*
X115794261Y-72985333D01*
X115794261Y-73080571D01*
X114079976Y-75166761D02*
X114222833Y-75214380D01*
X114460928Y-75214380D01*
X114556166Y-75166761D01*
X114603785Y-75119142D01*
X114651404Y-75023904D01*
X114651404Y-74928666D01*
X114603785Y-74833428D01*
X114556166Y-74785809D01*
X114460928Y-74738190D01*
X114270452Y-74690571D01*
X114175214Y-74642952D01*
X114127595Y-74595333D01*
X114079976Y-74500095D01*
X114079976Y-74404857D01*
X114127595Y-74309619D01*
X114175214Y-74262000D01*
X114270452Y-74214380D01*
X114508547Y-74214380D01*
X114651404Y-74262000D01*
X115556166Y-74214380D02*
X115079976Y-74214380D01*
X115032357Y-74690571D01*
X115079976Y-74642952D01*
X115175214Y-74595333D01*
X115413309Y-74595333D01*
X115508547Y-74642952D01*
X115556166Y-74690571D01*
X115603785Y-74785809D01*
X115603785Y-75023904D01*
X115556166Y-75119142D01*
X115508547Y-75166761D01*
X115413309Y-75214380D01*
X115175214Y-75214380D01*
X115079976Y-75166761D01*
X115032357Y-75119142D01*
X116079976Y-75214380D02*
X116270452Y-75214380D01*
X116365690Y-75166761D01*
X116413309Y-75119142D01*
X116508547Y-74976285D01*
X116556166Y-74785809D01*
X116556166Y-74404857D01*
X116508547Y-74309619D01*
X116460928Y-74262000D01*
X116365690Y-74214380D01*
X116175214Y-74214380D01*
X116079976Y-74262000D01*
X116032357Y-74309619D01*
X115984738Y-74404857D01*
X115984738Y-74642952D01*
X116032357Y-74738190D01*
X116079976Y-74785809D01*
X116175214Y-74833428D01*
X116365690Y-74833428D01*
X116460928Y-74785809D01*
X116508547Y-74738190D01*
X116556166Y-74642952D01*
X116984738Y-75214380D02*
X116984738Y-74214380D01*
X117318071Y-74928666D01*
X117651404Y-74214380D01*
X117651404Y-75214380D01*
X118032357Y-74214380D02*
X118699023Y-74214380D01*
X118032357Y-75214380D01*
X118699023Y-75214380D01*
D10*
X131669285Y-94603607D02*
X132419285Y-94403607D01*
X131669285Y-94203607D01*
X132419285Y-93689321D02*
X132419285Y-94032178D01*
X132419285Y-93860750D02*
X131669285Y-93860750D01*
X131776428Y-93917892D01*
X131847857Y-93975035D01*
X131883571Y-94032178D01*
X131740714Y-93460750D02*
X131705000Y-93432178D01*
X131669285Y-93375035D01*
X131669285Y-93232178D01*
X131705000Y-93175035D01*
X131740714Y-93146464D01*
X131812142Y-93117892D01*
X131883571Y-93117892D01*
X131990714Y-93146464D01*
X132419285Y-93489321D01*
X132419285Y-93117892D01*
X131669285Y-92489321D02*
X131669285Y-92146464D01*
X132419285Y-92317892D02*
X131669285Y-92317892D01*
X132419285Y-91632178D02*
X132419285Y-91975035D01*
X132419285Y-91803607D02*
X131669285Y-91803607D01*
X131776428Y-91860750D01*
X131847857Y-91917892D01*
X131883571Y-91975035D01*
X131740714Y-91403607D02*
X131705000Y-91375035D01*
X131669285Y-91317892D01*
X131669285Y-91175035D01*
X131705000Y-91117892D01*
X131740714Y-91089321D01*
X131812142Y-91060750D01*
X131883571Y-91060750D01*
X131990714Y-91089321D01*
X132419285Y-91432178D01*
X132419285Y-91060750D01*
X134209285Y-94575035D02*
X134959285Y-94432178D01*
X134423571Y-94317892D01*
X134959285Y-94203607D01*
X134209285Y-94060750D01*
X134959285Y-93517892D02*
X134959285Y-93860750D01*
X134959285Y-93689321D02*
X134209285Y-93689321D01*
X134316428Y-93746464D01*
X134387857Y-93803607D01*
X134423571Y-93860750D01*
X134209285Y-93317892D02*
X134209285Y-92946464D01*
X134495000Y-93146464D01*
X134495000Y-93060750D01*
X134530714Y-93003607D01*
X134566428Y-92975035D01*
X134637857Y-92946464D01*
X134816428Y-92946464D01*
X134887857Y-92975035D01*
X134923571Y-93003607D01*
X134959285Y-93060750D01*
X134959285Y-93232178D01*
X134923571Y-93289321D01*
X134887857Y-93317892D01*
X134209285Y-92232178D02*
X134816428Y-92232178D01*
X134887857Y-92203607D01*
X134923571Y-92175035D01*
X134959285Y-92117892D01*
X134959285Y-92003607D01*
X134923571Y-91946464D01*
X134887857Y-91917892D01*
X134816428Y-91889321D01*
X134209285Y-91889321D01*
X134959285Y-91289321D02*
X134959285Y-91632178D01*
X134959285Y-91460750D02*
X134209285Y-91460750D01*
X134316428Y-91517892D01*
X134387857Y-91575035D01*
X134423571Y-91632178D01*
X134280714Y-91060750D02*
X134245000Y-91032178D01*
X134209285Y-90975035D01*
X134209285Y-90832178D01*
X134245000Y-90775035D01*
X134280714Y-90746464D01*
X134352142Y-90717892D01*
X134423571Y-90717892D01*
X134530714Y-90746464D01*
X134959285Y-91089321D01*
X134959285Y-90717892D01*
X129129285Y-94603607D02*
X129879285Y-94403607D01*
X129129285Y-94203607D01*
X129879285Y-93689321D02*
X129879285Y-94032178D01*
X129879285Y-93860750D02*
X129129285Y-93860750D01*
X129236428Y-93917892D01*
X129307857Y-93975035D01*
X129343571Y-94032178D01*
X129129285Y-93489321D02*
X129129285Y-93117892D01*
X129415000Y-93317892D01*
X129415000Y-93232178D01*
X129450714Y-93175035D01*
X129486428Y-93146464D01*
X129557857Y-93117892D01*
X129736428Y-93117892D01*
X129807857Y-93146464D01*
X129843571Y-93175035D01*
X129879285Y-93232178D01*
X129879285Y-93403607D01*
X129843571Y-93460750D01*
X129807857Y-93489321D01*
X129129285Y-92489321D02*
X129129285Y-92146464D01*
X129879285Y-92317892D02*
X129129285Y-92317892D01*
X129879285Y-91632178D02*
X129879285Y-91975035D01*
X129879285Y-91803607D02*
X129129285Y-91803607D01*
X129236428Y-91860750D01*
X129307857Y-91917892D01*
X129343571Y-91975035D01*
X129129285Y-91260750D02*
X129129285Y-91203607D01*
X129165000Y-91146464D01*
X129200714Y-91117892D01*
X129272142Y-91089321D01*
X129415000Y-91060750D01*
X129593571Y-91060750D01*
X129736428Y-91089321D01*
X129807857Y-91117892D01*
X129843571Y-91146464D01*
X129879285Y-91203607D01*
X129879285Y-91260750D01*
X129843571Y-91317892D01*
X129807857Y-91346464D01*
X129736428Y-91375035D01*
X129593571Y-91403607D01*
X129415000Y-91403607D01*
X129272142Y-91375035D01*
X129200714Y-91346464D01*
X129165000Y-91317892D01*
X129129285Y-91260750D01*
X154529285Y-94603607D02*
X154529285Y-94260750D01*
X155279285Y-94432178D02*
X154529285Y-94432178D01*
X155279285Y-93746464D02*
X155279285Y-94089321D01*
X155279285Y-93917892D02*
X154529285Y-93917892D01*
X154636428Y-93975035D01*
X154707857Y-94032178D01*
X154743571Y-94089321D01*
X154779285Y-93232178D02*
X155279285Y-93232178D01*
X154493571Y-93375035D02*
X155029285Y-93517892D01*
X155029285Y-93146464D01*
X154529285Y-92517892D02*
X155279285Y-92375035D01*
X154743571Y-92260750D01*
X155279285Y-92146464D01*
X154529285Y-92003607D01*
X155279285Y-91460750D02*
X155279285Y-91803607D01*
X155279285Y-91632178D02*
X154529285Y-91632178D01*
X154636428Y-91689321D01*
X154707857Y-91746464D01*
X154743571Y-91803607D01*
X154779285Y-90946464D02*
X155279285Y-90946464D01*
X154493571Y-91089321D02*
X155029285Y-91232178D01*
X155029285Y-90860750D01*
D11*
X143676952Y-75731714D02*
X144057904Y-75731714D01*
X143819809Y-75398380D02*
X143819809Y-76255523D01*
X143867428Y-76350761D01*
X143962666Y-76398380D01*
X144057904Y-76398380D01*
X144534095Y-76398380D02*
X144438857Y-76350761D01*
X144391238Y-76303142D01*
X144343619Y-76207904D01*
X144343619Y-75922190D01*
X144391238Y-75826952D01*
X144438857Y-75779333D01*
X144534095Y-75731714D01*
X144676952Y-75731714D01*
X144772190Y-75779333D01*
X144819809Y-75826952D01*
X144867428Y-75922190D01*
X144867428Y-76207904D01*
X144819809Y-76303142D01*
X144772190Y-76350761D01*
X144676952Y-76398380D01*
X144534095Y-76398380D01*
X145296000Y-76017428D02*
X146057904Y-76017428D01*
X146819809Y-75398380D02*
X146819809Y-76112666D01*
X146772190Y-76255523D01*
X146676952Y-76350761D01*
X146534095Y-76398380D01*
X146438857Y-76398380D01*
X147200761Y-75398380D02*
X147867428Y-75398380D01*
X147438857Y-76398380D01*
D10*
X124442142Y-94403607D02*
X124799285Y-94403607D01*
X124049285Y-94603607D02*
X124442142Y-94403607D01*
X124049285Y-94203607D01*
X124049285Y-93746464D02*
X124049285Y-93860750D01*
X124085000Y-93917892D01*
X124120714Y-93946464D01*
X124227857Y-94003607D01*
X124370714Y-94032178D01*
X124656428Y-94032178D01*
X124727857Y-94003607D01*
X124763571Y-93975035D01*
X124799285Y-93917892D01*
X124799285Y-93803607D01*
X124763571Y-93746464D01*
X124727857Y-93717892D01*
X124656428Y-93689321D01*
X124477857Y-93689321D01*
X124406428Y-93717892D01*
X124370714Y-93746464D01*
X124335000Y-93803607D01*
X124335000Y-93917892D01*
X124370714Y-93975035D01*
X124406428Y-94003607D01*
X124477857Y-94032178D01*
X124442142Y-92860750D02*
X124799285Y-92860750D01*
X124049285Y-93060750D02*
X124442142Y-92860750D01*
X124049285Y-92660750D01*
X124370714Y-92375035D02*
X124335000Y-92432178D01*
X124299285Y-92460750D01*
X124227857Y-92489321D01*
X124192142Y-92489321D01*
X124120714Y-92460750D01*
X124085000Y-92432178D01*
X124049285Y-92375035D01*
X124049285Y-92260750D01*
X124085000Y-92203607D01*
X124120714Y-92175035D01*
X124192142Y-92146464D01*
X124227857Y-92146464D01*
X124299285Y-92175035D01*
X124335000Y-92203607D01*
X124370714Y-92260750D01*
X124370714Y-92375035D01*
X124406428Y-92432178D01*
X124442142Y-92460750D01*
X124513571Y-92489321D01*
X124656428Y-92489321D01*
X124727857Y-92460750D01*
X124763571Y-92432178D01*
X124799285Y-92375035D01*
X124799285Y-92260750D01*
X124763571Y-92203607D01*
X124727857Y-92175035D01*
X124656428Y-92146464D01*
X124513571Y-92146464D01*
X124442142Y-92175035D01*
X124406428Y-92203607D01*
X124370714Y-92260750D01*
D11*
X124118952Y-82335714D02*
X124499904Y-82335714D01*
X124261809Y-82002380D02*
X124261809Y-82859523D01*
X124309428Y-82954761D01*
X124404666Y-83002380D01*
X124499904Y-83002380D01*
X124976095Y-83002380D02*
X124880857Y-82954761D01*
X124833238Y-82907142D01*
X124785619Y-82811904D01*
X124785619Y-82526190D01*
X124833238Y-82430952D01*
X124880857Y-82383333D01*
X124976095Y-82335714D01*
X125118952Y-82335714D01*
X125214190Y-82383333D01*
X125261809Y-82430952D01*
X125309428Y-82526190D01*
X125309428Y-82811904D01*
X125261809Y-82907142D01*
X125214190Y-82954761D01*
X125118952Y-83002380D01*
X124976095Y-83002380D01*
X125738000Y-82621428D02*
X126499904Y-82621428D01*
X127261809Y-82002380D02*
X127261809Y-82716666D01*
X127214190Y-82859523D01*
X127118952Y-82954761D01*
X126976095Y-83002380D01*
X126880857Y-83002380D01*
X128214190Y-82002380D02*
X127738000Y-82002380D01*
X127690380Y-82478571D01*
X127738000Y-82430952D01*
X127833238Y-82383333D01*
X128071333Y-82383333D01*
X128166571Y-82430952D01*
X128214190Y-82478571D01*
X128261809Y-82573809D01*
X128261809Y-82811904D01*
X128214190Y-82907142D01*
X128166571Y-82954761D01*
X128071333Y-83002380D01*
X127833238Y-83002380D01*
X127738000Y-82954761D01*
X127690380Y-82907142D01*
X152810166Y-80271166D02*
X152576833Y-79937833D01*
X152410166Y-80271166D02*
X152410166Y-79571166D01*
X152676833Y-79571166D01*
X152743500Y-79604500D01*
X152776833Y-79637833D01*
X152810166Y-79704500D01*
X152810166Y-79804500D01*
X152776833Y-79871166D01*
X152743500Y-79904500D01*
X152676833Y-79937833D01*
X152410166Y-79937833D01*
X153376833Y-80237833D02*
X153310166Y-80271166D01*
X153176833Y-80271166D01*
X153110166Y-80237833D01*
X153076833Y-80171166D01*
X153076833Y-79904500D01*
X153110166Y-79837833D01*
X153176833Y-79804500D01*
X153310166Y-79804500D01*
X153376833Y-79837833D01*
X153410166Y-79904500D01*
X153410166Y-79971166D01*
X153076833Y-80037833D01*
X153643500Y-79804500D02*
X153810166Y-80271166D01*
X153976833Y-79804500D01*
X154243500Y-80204500D02*
X154276833Y-80237833D01*
X154243500Y-80271166D01*
X154210166Y-80237833D01*
X154243500Y-80204500D01*
X154243500Y-80271166D01*
X154243500Y-79837833D02*
X154276833Y-79871166D01*
X154243500Y-79904500D01*
X154210166Y-79871166D01*
X154243500Y-79837833D01*
X154243500Y-79904500D01*
X154943500Y-80271166D02*
X154543500Y-80271166D01*
X154743500Y-80271166D02*
X154743500Y-79571166D01*
X154676833Y-79671166D01*
X154610166Y-79737833D01*
X154543500Y-79771166D01*
X155243500Y-80204500D02*
X155276833Y-80237833D01*
X155243500Y-80271166D01*
X155210166Y-80237833D01*
X155243500Y-80204500D01*
X155243500Y-80271166D01*
X155710166Y-79571166D02*
X155776833Y-79571166D01*
X155843500Y-79604500D01*
X155876833Y-79637833D01*
X155910166Y-79704500D01*
X155943500Y-79837833D01*
X155943500Y-80004500D01*
X155910166Y-80137833D01*
X155876833Y-80204500D01*
X155843500Y-80237833D01*
X155776833Y-80271166D01*
X155710166Y-80271166D01*
X155643500Y-80237833D01*
X155610166Y-80204500D01*
X155576833Y-80137833D01*
X155543500Y-80004500D01*
X155543500Y-79837833D01*
X155576833Y-79704500D01*
X155610166Y-79637833D01*
X155643500Y-79604500D01*
X155710166Y-79571166D01*
X152776833Y-81398166D02*
X152376833Y-81398166D01*
X152576833Y-81398166D02*
X152576833Y-80698166D01*
X152510166Y-80798166D01*
X152443500Y-80864833D01*
X152376833Y-80898166D01*
X153376833Y-80698166D02*
X153243500Y-80698166D01*
X153176833Y-80731500D01*
X153143500Y-80764833D01*
X153076833Y-80864833D01*
X153043500Y-80998166D01*
X153043500Y-81264833D01*
X153076833Y-81331500D01*
X153110166Y-81364833D01*
X153176833Y-81398166D01*
X153310166Y-81398166D01*
X153376833Y-81364833D01*
X153410166Y-81331500D01*
X153443500Y-81264833D01*
X153443500Y-81098166D01*
X153410166Y-81031500D01*
X153376833Y-80998166D01*
X153310166Y-80964833D01*
X153176833Y-80964833D01*
X153110166Y-80998166D01*
X153076833Y-81031500D01*
X153043500Y-81098166D01*
X153743500Y-81331500D02*
X153776833Y-81364833D01*
X153743500Y-81398166D01*
X153710166Y-81364833D01*
X153743500Y-81331500D01*
X153743500Y-81398166D01*
X154443500Y-81398166D02*
X154043500Y-81398166D01*
X154243500Y-81398166D02*
X154243500Y-80698166D01*
X154176833Y-80798166D01*
X154110166Y-80864833D01*
X154043500Y-80898166D01*
X154710166Y-80764833D02*
X154743500Y-80731500D01*
X154810166Y-80698166D01*
X154976833Y-80698166D01*
X155043500Y-80731500D01*
X155076833Y-80764833D01*
X155110166Y-80831500D01*
X155110166Y-80898166D01*
X155076833Y-80998166D01*
X154676833Y-81398166D01*
X155110166Y-81398166D01*
X155410166Y-81331500D02*
X155443500Y-81364833D01*
X155410166Y-81398166D01*
X155376833Y-81364833D01*
X155410166Y-81331500D01*
X155410166Y-81398166D01*
X155710166Y-80764833D02*
X155743500Y-80731500D01*
X155810166Y-80698166D01*
X155976833Y-80698166D01*
X156043500Y-80731500D01*
X156076833Y-80764833D01*
X156110166Y-80831500D01*
X156110166Y-80898166D01*
X156076833Y-80998166D01*
X155676833Y-81398166D01*
X156110166Y-81398166D01*
X156543500Y-80698166D02*
X156610166Y-80698166D01*
X156676833Y-80731500D01*
X156710166Y-80764833D01*
X156743500Y-80831500D01*
X156776833Y-80964833D01*
X156776833Y-81131500D01*
X156743500Y-81264833D01*
X156710166Y-81331500D01*
X156676833Y-81364833D01*
X156610166Y-81398166D01*
X156543500Y-81398166D01*
X156476833Y-81364833D01*
X156443500Y-81331500D01*
X156410166Y-81264833D01*
X156376833Y-81131500D01*
X156376833Y-80964833D01*
X156410166Y-80831500D01*
X156443500Y-80764833D01*
X156476833Y-80731500D01*
X156543500Y-80698166D01*
X157043500Y-80764833D02*
X157076833Y-80731500D01*
X157143500Y-80698166D01*
X157310166Y-80698166D01*
X157376833Y-80731500D01*
X157410166Y-80764833D01*
X157443500Y-80831500D01*
X157443500Y-80898166D01*
X157410166Y-80998166D01*
X157010166Y-81398166D01*
X157443500Y-81398166D01*
X157710166Y-80764833D02*
X157743500Y-80731500D01*
X157810166Y-80698166D01*
X157976833Y-80698166D01*
X158043500Y-80731500D01*
X158076833Y-80764833D01*
X158110166Y-80831500D01*
X158110166Y-80898166D01*
X158076833Y-80998166D01*
X157676833Y-81398166D01*
X158110166Y-81398166D01*
X126675428Y-78700380D02*
X127342095Y-78700380D01*
X126675428Y-79700380D01*
X127342095Y-79700380D01*
X127723047Y-79319428D02*
X128484952Y-79319428D01*
X128818285Y-78700380D02*
X129389714Y-78700380D01*
X129104000Y-79700380D02*
X129104000Y-78700380D01*
X130151619Y-79033714D02*
X130151619Y-79700380D01*
X129723047Y-79033714D02*
X129723047Y-79557523D01*
X129770666Y-79652761D01*
X129865904Y-79700380D01*
X130008761Y-79700380D01*
X130104000Y-79652761D01*
X130151619Y-79605142D01*
X130627809Y-79700380D02*
X130627809Y-79033714D01*
X130627809Y-79224190D02*
X130675428Y-79128952D01*
X130723047Y-79081333D01*
X130818285Y-79033714D01*
X130913523Y-79033714D01*
X131246857Y-79033714D02*
X131246857Y-79700380D01*
X131246857Y-79128952D02*
X131294476Y-79081333D01*
X131389714Y-79033714D01*
X131532571Y-79033714D01*
X131627809Y-79081333D01*
X131675428Y-79176571D01*
X131675428Y-79700380D01*
X132913523Y-79700380D02*
X132913523Y-78700380D01*
X134104000Y-78652761D02*
X133246857Y-79938476D01*
X134627809Y-78700380D02*
X134818285Y-78700380D01*
X134913523Y-78748000D01*
X135008761Y-78843238D01*
X135056380Y-79033714D01*
X135056380Y-79367047D01*
X135008761Y-79557523D01*
X134913523Y-79652761D01*
X134818285Y-79700380D01*
X134627809Y-79700380D01*
X134532571Y-79652761D01*
X134437333Y-79557523D01*
X134389714Y-79367047D01*
X134389714Y-79033714D01*
X134437333Y-78843238D01*
X134532571Y-78748000D01*
X134627809Y-78700380D01*
X135484952Y-79319428D02*
X136246857Y-79319428D01*
X136723047Y-79700380D02*
X136723047Y-78700380D01*
X137104000Y-78700380D01*
X137199238Y-78748000D01*
X137246857Y-78795619D01*
X137294476Y-78890857D01*
X137294476Y-79033714D01*
X137246857Y-79128952D01*
X137199238Y-79176571D01*
X137104000Y-79224190D01*
X136723047Y-79224190D01*
X137723047Y-79700380D02*
X137723047Y-78700380D01*
X138056380Y-79414666D01*
X138389714Y-78700380D01*
X138389714Y-79700380D01*
X139056380Y-78700380D02*
X139246857Y-78700380D01*
X139342095Y-78748000D01*
X139437333Y-78843238D01*
X139484952Y-79033714D01*
X139484952Y-79367047D01*
X139437333Y-79557523D01*
X139342095Y-79652761D01*
X139246857Y-79700380D01*
X139056380Y-79700380D01*
X138961142Y-79652761D01*
X138865904Y-79557523D01*
X138818285Y-79367047D01*
X138818285Y-79033714D01*
X138865904Y-78843238D01*
X138961142Y-78748000D01*
X139056380Y-78700380D01*
X139913523Y-79700380D02*
X139913523Y-78700380D01*
X140151619Y-78700380D01*
X140294476Y-78748000D01*
X140389714Y-78843238D01*
X140437333Y-78938476D01*
X140484952Y-79128952D01*
X140484952Y-79271809D01*
X140437333Y-79462285D01*
X140389714Y-79557523D01*
X140294476Y-79652761D01*
X140151619Y-79700380D01*
X139913523Y-79700380D01*
D10*
X118969285Y-94603607D02*
X119719285Y-94403607D01*
X118969285Y-94203607D01*
X118969285Y-94060750D02*
X118969285Y-93660750D01*
X119719285Y-93917892D01*
X118969285Y-92975035D02*
X119576428Y-92975035D01*
X119647857Y-92946464D01*
X119683571Y-92917892D01*
X119719285Y-92860750D01*
X119719285Y-92746464D01*
X119683571Y-92689321D01*
X119647857Y-92660750D01*
X119576428Y-92632178D01*
X118969285Y-92632178D01*
X119719285Y-92032178D02*
X119719285Y-92375035D01*
X119719285Y-92203607D02*
X118969285Y-92203607D01*
X119076428Y-92260750D01*
X119147857Y-92317892D01*
X119183571Y-92375035D01*
X118969285Y-91660750D02*
X118969285Y-91603607D01*
X119005000Y-91546464D01*
X119040714Y-91517892D01*
X119112142Y-91489321D01*
X119255000Y-91460750D01*
X119433571Y-91460750D01*
X119576428Y-91489321D01*
X119647857Y-91517892D01*
X119683571Y-91546464D01*
X119719285Y-91603607D01*
X119719285Y-91660750D01*
X119683571Y-91717892D01*
X119647857Y-91746464D01*
X119576428Y-91775035D01*
X119433571Y-91803607D01*
X119255000Y-91803607D01*
X119112142Y-91775035D01*
X119040714Y-91746464D01*
X119005000Y-91717892D01*
X118969285Y-91660750D01*
X157069285Y-94603607D02*
X157069285Y-94260750D01*
X157819285Y-94432178D02*
X157069285Y-94432178D01*
X157819285Y-93746464D02*
X157819285Y-94089321D01*
X157819285Y-93917892D02*
X157069285Y-93917892D01*
X157176428Y-93975035D01*
X157247857Y-94032178D01*
X157283571Y-94089321D01*
X157069285Y-93203607D02*
X157069285Y-93489321D01*
X157426428Y-93517892D01*
X157390714Y-93489321D01*
X157355000Y-93432178D01*
X157355000Y-93289321D01*
X157390714Y-93232178D01*
X157426428Y-93203607D01*
X157497857Y-93175035D01*
X157676428Y-93175035D01*
X157747857Y-93203607D01*
X157783571Y-93232178D01*
X157819285Y-93289321D01*
X157819285Y-93432178D01*
X157783571Y-93489321D01*
X157747857Y-93517892D01*
X157462142Y-92346464D02*
X157819285Y-92346464D01*
X157069285Y-92546464D02*
X157462142Y-92346464D01*
X157069285Y-92146464D01*
X157819285Y-91632178D02*
X157819285Y-91975035D01*
X157819285Y-91803607D02*
X157069285Y-91803607D01*
X157176428Y-91860750D01*
X157247857Y-91917892D01*
X157283571Y-91975035D01*
X157319285Y-91117892D02*
X157819285Y-91117892D01*
X157033571Y-91260750D02*
X157569285Y-91403607D01*
X157569285Y-91032178D01*
D11*
X141652666Y-97242380D02*
X141652666Y-97956666D01*
X141605047Y-98099523D01*
X141509809Y-98194761D01*
X141366952Y-98242380D01*
X141271714Y-98242380D01*
X142557428Y-97575714D02*
X142557428Y-98242380D01*
X142319333Y-97194761D02*
X142081238Y-97909047D01*
X142700285Y-97909047D01*
X137080666Y-97242380D02*
X137080666Y-97956666D01*
X137033047Y-98099523D01*
X136937809Y-98194761D01*
X136794952Y-98242380D01*
X136699714Y-98242380D01*
X138033047Y-97242380D02*
X137556857Y-97242380D01*
X137509238Y-97718571D01*
X137556857Y-97670952D01*
X137652095Y-97623333D01*
X137890190Y-97623333D01*
X137985428Y-97670952D01*
X138033047Y-97718571D01*
X138080666Y-97813809D01*
X138080666Y-98051904D01*
X138033047Y-98147142D01*
X137985428Y-98194761D01*
X137890190Y-98242380D01*
X137652095Y-98242380D01*
X137556857Y-98194761D01*
X137509238Y-98147142D01*
D12*
X143688095Y-109150000D02*
X143688095Y-100520000D01*
X145223330Y-109150000D02*
X145223330Y-100520000D01*
X157840000Y-100520000D02*
X157840000Y-100110000D01*
X143450000Y-95410000D02*
X144780000Y-95410000D01*
X152040000Y-98010000D02*
X152040000Y-97570000D01*
X155300000Y-100520000D02*
X155300000Y-100110000D01*
X144750950Y-109150000D02*
X144750950Y-100520000D01*
X144160475Y-109150000D02*
X144160475Y-100520000D01*
X157840000Y-98010000D02*
X157840000Y-97570000D01*
X145341425Y-109150000D02*
X145341425Y-100520000D01*
X152760000Y-100520000D02*
X152760000Y-100110000D01*
X143924285Y-109150000D02*
X143924285Y-100520000D01*
X143570000Y-109150000D02*
X143570000Y-100520000D01*
X144632855Y-109150000D02*
X144632855Y-100520000D01*
X156210000Y-109150000D02*
X156210000Y-100520000D01*
X149500000Y-100520000D02*
X149500000Y-100110000D01*
X146960000Y-98010000D02*
X146960000Y-97570000D01*
X154580000Y-98010000D02*
X154580000Y-97570000D01*
X145459520Y-109150000D02*
X145459520Y-100520000D01*
X151130000Y-109150000D02*
X151130000Y-100520000D01*
X145140000Y-100520000D02*
X145140000Y-100110000D01*
X149500000Y-98010000D02*
X149500000Y-97570000D01*
X145140000Y-98010000D02*
X145140000Y-97630000D01*
X144042380Y-109150000D02*
X144042380Y-100520000D01*
X146960000Y-100520000D02*
X146960000Y-100110000D01*
X150220000Y-100520000D02*
X150220000Y-100110000D01*
X145577615Y-109150000D02*
X145577615Y-100520000D01*
X153670000Y-109150000D02*
X153670000Y-100520000D01*
X152040000Y-100520000D02*
X152040000Y-100110000D01*
X154580000Y-100520000D02*
X154580000Y-100110000D01*
X144420000Y-98010000D02*
X144420000Y-97630000D01*
X147680000Y-98010000D02*
X147680000Y-97570000D01*
X145695710Y-109150000D02*
X145695710Y-100520000D01*
X144420000Y-100520000D02*
X144420000Y-100110000D01*
X150220000Y-98010000D02*
X150220000Y-97570000D01*
X155300000Y-98010000D02*
X155300000Y-97570000D01*
X146050000Y-109150000D02*
X146050000Y-100520000D01*
X147680000Y-100520000D02*
X147680000Y-100110000D01*
X157120000Y-100520000D02*
X157120000Y-100110000D01*
X145931900Y-109150000D02*
X145931900Y-100520000D01*
X143450000Y-109150000D02*
X158810000Y-109150000D01*
X143450000Y-96520000D02*
X143450000Y-95410000D01*
X143450000Y-109150000D02*
X143450000Y-100520000D01*
X143450000Y-100520000D02*
X158810000Y-100520000D01*
X144869045Y-109150000D02*
X144869045Y-100520000D01*
X157120000Y-98010000D02*
X157120000Y-97570000D01*
X148590000Y-109150000D02*
X148590000Y-100520000D01*
X144278570Y-109150000D02*
X144278570Y-100520000D01*
X144396665Y-109150000D02*
X144396665Y-100520000D01*
X152760000Y-98010000D02*
X152760000Y-97570000D01*
X144514760Y-109150000D02*
X144514760Y-100520000D01*
X143806190Y-109150000D02*
X143806190Y-100520000D01*
X145105235Y-109150000D02*
X145105235Y-100520000D01*
X145813805Y-109150000D02*
X145813805Y-100520000D01*
X144987140Y-109150000D02*
X144987140Y-100520000D01*
X158810000Y-109150000D02*
X158810000Y-100520000D01*
X129180000Y-98010000D02*
X129180000Y-97570000D01*
X132440000Y-98010000D02*
X132440000Y-97570000D01*
X124820000Y-98010000D02*
X124820000Y-97570000D01*
X116480000Y-98010000D02*
X116480000Y-97570000D01*
X114507140Y-109150000D02*
X114507140Y-100520000D01*
X124820000Y-100520000D02*
X124820000Y-100110000D01*
X113326190Y-109150000D02*
X113326190Y-100520000D01*
X127360000Y-100520000D02*
X127360000Y-100110000D01*
X129180000Y-100520000D02*
X129180000Y-100110000D01*
X119020000Y-100520000D02*
X119020000Y-100110000D01*
X120650000Y-109150000D02*
X120650000Y-100520000D01*
X135950000Y-109150000D02*
X135950000Y-100520000D01*
X130810000Y-109150000D02*
X130810000Y-100520000D01*
X122280000Y-100520000D02*
X122280000Y-100110000D01*
X115570000Y-109150000D02*
X115570000Y-100520000D01*
X129900000Y-98010000D02*
X129900000Y-97570000D01*
X115097615Y-109150000D02*
X115097615Y-100520000D01*
X114743330Y-109150000D02*
X114743330Y-100520000D01*
X128270000Y-109150000D02*
X128270000Y-100520000D01*
X114034760Y-109150000D02*
X114034760Y-100520000D01*
X117200000Y-100520000D02*
X117200000Y-100110000D01*
X113798570Y-109150000D02*
X113798570Y-100520000D01*
X113940000Y-100520000D02*
X113940000Y-100110000D01*
X121560000Y-98010000D02*
X121560000Y-97570000D01*
X113940000Y-98010000D02*
X113940000Y-97630000D01*
X115451900Y-109150000D02*
X115451900Y-100520000D01*
X119740000Y-100520000D02*
X119740000Y-100110000D01*
X127360000Y-98010000D02*
X127360000Y-97570000D01*
X134980000Y-98010000D02*
X134980000Y-97570000D01*
X113916665Y-109150000D02*
X113916665Y-100520000D01*
X115215710Y-109150000D02*
X115215710Y-100520000D01*
X123190000Y-109150000D02*
X123190000Y-100520000D01*
X113562380Y-109150000D02*
X113562380Y-100520000D01*
X113208095Y-109150000D02*
X113208095Y-100520000D01*
X112970000Y-109150000D02*
X135950000Y-109150000D01*
X113444285Y-109150000D02*
X113444285Y-100520000D01*
X114270950Y-109150000D02*
X114270950Y-100520000D01*
X126640000Y-98010000D02*
X126640000Y-97570000D01*
X114660000Y-98010000D02*
X114660000Y-97630000D01*
X114660000Y-100520000D02*
X114660000Y-100110000D01*
X121560000Y-100520000D02*
X121560000Y-100110000D01*
X116480000Y-100520000D02*
X116480000Y-100110000D01*
X126640000Y-100520000D02*
X126640000Y-100110000D01*
X124100000Y-100520000D02*
X124100000Y-100110000D01*
X114861425Y-109150000D02*
X114861425Y-100520000D01*
X129900000Y-100520000D02*
X129900000Y-100110000D01*
X114979520Y-109150000D02*
X114979520Y-100520000D01*
X134260000Y-98010000D02*
X134260000Y-97570000D01*
X114389045Y-109150000D02*
X114389045Y-100520000D01*
X113090000Y-109150000D02*
X113090000Y-100520000D01*
X134980000Y-100520000D02*
X134980000Y-100110000D01*
X131720000Y-100520000D02*
X131720000Y-100110000D01*
X122280000Y-98010000D02*
X122280000Y-97570000D01*
X134260000Y-100520000D02*
X134260000Y-100110000D01*
X115333805Y-109150000D02*
X115333805Y-100520000D01*
X125730000Y-109150000D02*
X125730000Y-100520000D01*
X119020000Y-98010000D02*
X119020000Y-97570000D01*
X114625235Y-109150000D02*
X114625235Y-100520000D01*
X119740000Y-98010000D02*
X119740000Y-97570000D01*
X112970000Y-95410000D02*
X114300000Y-95410000D01*
X132440000Y-100520000D02*
X132440000Y-100110000D01*
X133350000Y-109150000D02*
X133350000Y-100520000D01*
X124100000Y-98010000D02*
X124100000Y-97570000D01*
X114152855Y-109150000D02*
X114152855Y-100520000D01*
X131720000Y-98010000D02*
X131720000Y-97570000D01*
X118110000Y-109150000D02*
X118110000Y-100520000D01*
X112970000Y-96520000D02*
X112970000Y-95410000D01*
X113680475Y-109150000D02*
X113680475Y-100520000D01*
X112970000Y-100520000D02*
X135950000Y-100520000D01*
X117200000Y-98010000D02*
X117200000Y-97570000D01*
X112970000Y-109150000D02*
X112970000Y-100520000D01*
%LPC*%
D13*
X139700000Y-104140000D03*
D14*
X144780000Y-96520000D03*
D15*
X144780000Y-99060000D03*
X147320000Y-96520000D03*
X147320000Y-99060000D03*
X149860000Y-96520000D03*
X149860000Y-99060000D03*
X152400000Y-96520000D03*
X152400000Y-99060000D03*
X154940000Y-96520000D03*
X154940000Y-99060000D03*
X157480000Y-96520000D03*
X157480000Y-99060000D03*
D14*
X114300000Y-96520000D03*
D15*
X114300000Y-99060000D03*
X116840000Y-96520000D03*
X116840000Y-99060000D03*
X119380000Y-96520000D03*
X119380000Y-99060000D03*
X121920000Y-96520000D03*
X121920000Y-99060000D03*
X124460000Y-96520000D03*
X124460000Y-99060000D03*
X127000000Y-96520000D03*
X127000000Y-99060000D03*
X129540000Y-96520000D03*
X129540000Y-99060000D03*
X132080000Y-96520000D03*
X132080000Y-99060000D03*
X134620000Y-96520000D03*
X134620000Y-99060000D03*
D14*
X125080000Y-87700000D03*
D15*
X125080000Y-85160000D03*
X127620000Y-87700000D03*
X127620000Y-85160000D03*
X130160000Y-87700000D03*
X130160000Y-85160000D03*
X132700000Y-87700000D03*
X132700000Y-85160000D03*
X135240000Y-87700000D03*
X135240000Y-85160000D03*
X137780000Y-87700000D03*
X137780000Y-85160000D03*
D14*
X144780000Y-73660000D03*
D15*
X144780000Y-71120000D03*
X147320000Y-73660000D03*
X147320000Y-71120000D03*
X149860000Y-73660000D03*
X149860000Y-71120000D03*
X152400000Y-73660000D03*
X152400000Y-71120000D03*
X154940000Y-73660000D03*
X154940000Y-71120000D03*
X157480000Y-73660000D03*
X157480000Y-71120000D03*
D14*
X144780000Y-87700000D03*
D15*
X144780000Y-85160000D03*
X147320000Y-87700000D03*
X147320000Y-85160000D03*
X149860000Y-87700000D03*
X149860000Y-85160000D03*
X152400000Y-87700000D03*
X152400000Y-85160000D03*
X154940000Y-87700000D03*
X154940000Y-85160000D03*
X157480000Y-87700000D03*
X157480000Y-85160000D03*
M02*
