%TF.GenerationSoftware,KiCad,Pcbnew,6.0.9-8da3e8f707~116~ubuntu20.04.1*%
%TF.CreationDate,2022-12-23T11:27:02+01:00*%
%TF.ProjectId,z_pmod,7a5f706d-6f64-42e6-9b69-6361645f7063,rev?*%
%TF.SameCoordinates,Original*%
%TF.FileFunction,Drillmap*%
%TF.FilePolarity,Positive*%
%FSLAX45Y45*%
G04 Gerber Fmt 4.5, Leading zero omitted, Abs format (unit mm)*
G04 Created by KiCad (PCBNEW 6.0.9-8da3e8f707~116~ubuntu20.04.1) date 2022-12-23 11:27:02*
%MOMM*%
%LPD*%
G01*
G04 APERTURE LIST*
%ADD10C,0.100000*%
%ADD11C,0.200000*%
%ADD12C,0.250000*%
G04 APERTURE END LIST*
D10*
X15938500Y-10922000D02*
G75*
G03*
X16002000Y-10858500I0J63500D01*
G01*
X12192000Y-6921500D02*
G75*
G03*
X12128500Y-6858000I-63500J0D01*
G01*
X14160500Y-6858000D02*
G75*
G03*
X14097000Y-6921500I0J-63500D01*
G01*
X11176000Y-6921500D02*
X11176000Y-10858500D01*
X14097000Y-6921500D02*
X14097000Y-7480300D01*
X15938500Y-6858000D02*
X14160500Y-6858000D01*
X11176000Y-10858500D02*
G75*
G03*
X11239500Y-10922000I63500J0D01*
G01*
X11239500Y-6858000D02*
G75*
G03*
X11176000Y-6921500I0J-63500D01*
G01*
X12192000Y-7480300D02*
X12192000Y-6921500D01*
X14033500Y-7543800D02*
G75*
G03*
X14097000Y-7480300I0J63500D01*
G01*
X16002000Y-10858500D02*
X16002000Y-6921500D01*
X12128500Y-6858000D02*
X11239500Y-6858000D01*
X16002000Y-6921500D02*
G75*
G03*
X15938500Y-6858000I-63500J0D01*
G01*
X12192000Y-7480300D02*
G75*
G03*
X12255500Y-7543800I63500J0D01*
G01*
X14033500Y-7543800D02*
X12255500Y-7543800D01*
X11239500Y-10922000D02*
X15938500Y-10922000D01*
D11*
D12*
X13845000Y-10289000D02*
X14095000Y-10539000D01*
X14095000Y-10289000D02*
X13845000Y-10539000D01*
D11*
X11428619Y-11237476D02*
X11428619Y-11037476D01*
X11476238Y-11037476D01*
X11504809Y-11047000D01*
X11523857Y-11066048D01*
X11533381Y-11085095D01*
X11542905Y-11123190D01*
X11542905Y-11151762D01*
X11533381Y-11189857D01*
X11523857Y-11208905D01*
X11504809Y-11227952D01*
X11476238Y-11237476D01*
X11428619Y-11237476D01*
X11628619Y-11237476D02*
X11628619Y-11104143D01*
X11628619Y-11142238D02*
X11638143Y-11123190D01*
X11647667Y-11113667D01*
X11666714Y-11104143D01*
X11685762Y-11104143D01*
X11752428Y-11237476D02*
X11752428Y-11104143D01*
X11752428Y-11037476D02*
X11742905Y-11047000D01*
X11752428Y-11056524D01*
X11761952Y-11047000D01*
X11752428Y-11037476D01*
X11752428Y-11056524D01*
X11876238Y-11237476D02*
X11857190Y-11227952D01*
X11847667Y-11208905D01*
X11847667Y-11037476D01*
X11981000Y-11237476D02*
X11961952Y-11227952D01*
X11952428Y-11208905D01*
X11952428Y-11037476D01*
X12209571Y-11237476D02*
X12209571Y-11037476D01*
X12276238Y-11180333D01*
X12342905Y-11037476D01*
X12342905Y-11237476D01*
X12523857Y-11237476D02*
X12523857Y-11132714D01*
X12514333Y-11113667D01*
X12495286Y-11104143D01*
X12457190Y-11104143D01*
X12438143Y-11113667D01*
X12523857Y-11227952D02*
X12504809Y-11237476D01*
X12457190Y-11237476D01*
X12438143Y-11227952D01*
X12428619Y-11208905D01*
X12428619Y-11189857D01*
X12438143Y-11170810D01*
X12457190Y-11161286D01*
X12504809Y-11161286D01*
X12523857Y-11151762D01*
X12619095Y-11104143D02*
X12619095Y-11304143D01*
X12619095Y-11113667D02*
X12638143Y-11104143D01*
X12676238Y-11104143D01*
X12695286Y-11113667D01*
X12704809Y-11123190D01*
X12714333Y-11142238D01*
X12714333Y-11199381D01*
X12704809Y-11218428D01*
X12695286Y-11227952D01*
X12676238Y-11237476D01*
X12638143Y-11237476D01*
X12619095Y-11227952D01*
X12800048Y-11218428D02*
X12809571Y-11227952D01*
X12800048Y-11237476D01*
X12790524Y-11227952D01*
X12800048Y-11218428D01*
X12800048Y-11237476D01*
X12800048Y-11113667D02*
X12809571Y-11123190D01*
X12800048Y-11132714D01*
X12790524Y-11123190D01*
X12800048Y-11113667D01*
X12800048Y-11132714D01*
X10971000Y-11467000D02*
X11171000Y-11667000D01*
X11171000Y-11467000D02*
X10971000Y-11667000D01*
X11419095Y-11476524D02*
X11428619Y-11467000D01*
X11447667Y-11457476D01*
X11495286Y-11457476D01*
X11514333Y-11467000D01*
X11523857Y-11476524D01*
X11533381Y-11495571D01*
X11533381Y-11514619D01*
X11523857Y-11543190D01*
X11409571Y-11657476D01*
X11533381Y-11657476D01*
X11619095Y-11638428D02*
X11628619Y-11647952D01*
X11619095Y-11657476D01*
X11609571Y-11647952D01*
X11619095Y-11638428D01*
X11619095Y-11657476D01*
X11809571Y-11457476D02*
X11714333Y-11457476D01*
X11704809Y-11552714D01*
X11714333Y-11543190D01*
X11733381Y-11533667D01*
X11781000Y-11533667D01*
X11800048Y-11543190D01*
X11809571Y-11552714D01*
X11819095Y-11571762D01*
X11819095Y-11619381D01*
X11809571Y-11638428D01*
X11800048Y-11647952D01*
X11781000Y-11657476D01*
X11733381Y-11657476D01*
X11714333Y-11647952D01*
X11704809Y-11638428D01*
X11942905Y-11457476D02*
X11961952Y-11457476D01*
X11981000Y-11467000D01*
X11990524Y-11476524D01*
X12000048Y-11495571D01*
X12009571Y-11533667D01*
X12009571Y-11581286D01*
X12000048Y-11619381D01*
X11990524Y-11638428D01*
X11981000Y-11647952D01*
X11961952Y-11657476D01*
X11942905Y-11657476D01*
X11923857Y-11647952D01*
X11914333Y-11638428D01*
X11904809Y-11619381D01*
X11895286Y-11581286D01*
X11895286Y-11533667D01*
X11904809Y-11495571D01*
X11914333Y-11476524D01*
X11923857Y-11467000D01*
X11942905Y-11457476D01*
X12133381Y-11457476D02*
X12152428Y-11457476D01*
X12171476Y-11467000D01*
X12181000Y-11476524D01*
X12190524Y-11495571D01*
X12200048Y-11533667D01*
X12200048Y-11581286D01*
X12190524Y-11619381D01*
X12181000Y-11638428D01*
X12171476Y-11647952D01*
X12152428Y-11657476D01*
X12133381Y-11657476D01*
X12114333Y-11647952D01*
X12104809Y-11638428D01*
X12095286Y-11619381D01*
X12085762Y-11581286D01*
X12085762Y-11533667D01*
X12095286Y-11495571D01*
X12104809Y-11476524D01*
X12114333Y-11467000D01*
X12133381Y-11457476D01*
X12285762Y-11657476D02*
X12285762Y-11524143D01*
X12285762Y-11543190D02*
X12295286Y-11533667D01*
X12314333Y-11524143D01*
X12342905Y-11524143D01*
X12361952Y-11533667D01*
X12371476Y-11552714D01*
X12371476Y-11657476D01*
X12371476Y-11552714D02*
X12381000Y-11533667D01*
X12400048Y-11524143D01*
X12428619Y-11524143D01*
X12447667Y-11533667D01*
X12457190Y-11552714D01*
X12457190Y-11657476D01*
X12552428Y-11657476D02*
X12552428Y-11524143D01*
X12552428Y-11543190D02*
X12561952Y-11533667D01*
X12581000Y-11524143D01*
X12609571Y-11524143D01*
X12628619Y-11533667D01*
X12638143Y-11552714D01*
X12638143Y-11657476D01*
X12638143Y-11552714D02*
X12647667Y-11533667D01*
X12666714Y-11524143D01*
X12695286Y-11524143D01*
X12714333Y-11533667D01*
X12723857Y-11552714D01*
X12723857Y-11657476D01*
X13114333Y-11447952D02*
X12942905Y-11705095D01*
X13371476Y-11457476D02*
X13390524Y-11457476D01*
X13409571Y-11467000D01*
X13419095Y-11476524D01*
X13428619Y-11495571D01*
X13438143Y-11533667D01*
X13438143Y-11581286D01*
X13428619Y-11619381D01*
X13419095Y-11638428D01*
X13409571Y-11647952D01*
X13390524Y-11657476D01*
X13371476Y-11657476D01*
X13352428Y-11647952D01*
X13342905Y-11638428D01*
X13333381Y-11619381D01*
X13323857Y-11581286D01*
X13323857Y-11533667D01*
X13333381Y-11495571D01*
X13342905Y-11476524D01*
X13352428Y-11467000D01*
X13371476Y-11457476D01*
X13523857Y-11638428D02*
X13533381Y-11647952D01*
X13523857Y-11657476D01*
X13514333Y-11647952D01*
X13523857Y-11638428D01*
X13523857Y-11657476D01*
X13657190Y-11457476D02*
X13676238Y-11457476D01*
X13695286Y-11467000D01*
X13704809Y-11476524D01*
X13714333Y-11495571D01*
X13723857Y-11533667D01*
X13723857Y-11581286D01*
X13714333Y-11619381D01*
X13704809Y-11638428D01*
X13695286Y-11647952D01*
X13676238Y-11657476D01*
X13657190Y-11657476D01*
X13638143Y-11647952D01*
X13628619Y-11638428D01*
X13619095Y-11619381D01*
X13609571Y-11581286D01*
X13609571Y-11533667D01*
X13619095Y-11495571D01*
X13628619Y-11476524D01*
X13638143Y-11467000D01*
X13657190Y-11457476D01*
X13819095Y-11657476D02*
X13857190Y-11657476D01*
X13876238Y-11647952D01*
X13885762Y-11638428D01*
X13904809Y-11609857D01*
X13914333Y-11571762D01*
X13914333Y-11495571D01*
X13904809Y-11476524D01*
X13895286Y-11467000D01*
X13876238Y-11457476D01*
X13838143Y-11457476D01*
X13819095Y-11467000D01*
X13809571Y-11476524D01*
X13800048Y-11495571D01*
X13800048Y-11543190D01*
X13809571Y-11562238D01*
X13819095Y-11571762D01*
X13838143Y-11581286D01*
X13876238Y-11581286D01*
X13895286Y-11571762D01*
X13904809Y-11562238D01*
X13914333Y-11543190D01*
X14028619Y-11543190D02*
X14009571Y-11533667D01*
X14000048Y-11524143D01*
X13990524Y-11505095D01*
X13990524Y-11495571D01*
X14000048Y-11476524D01*
X14009571Y-11467000D01*
X14028619Y-11457476D01*
X14066714Y-11457476D01*
X14085762Y-11467000D01*
X14095286Y-11476524D01*
X14104809Y-11495571D01*
X14104809Y-11505095D01*
X14095286Y-11524143D01*
X14085762Y-11533667D01*
X14066714Y-11543190D01*
X14028619Y-11543190D01*
X14009571Y-11552714D01*
X14000048Y-11562238D01*
X13990524Y-11581286D01*
X13990524Y-11619381D01*
X14000048Y-11638428D01*
X14009571Y-11647952D01*
X14028619Y-11657476D01*
X14066714Y-11657476D01*
X14085762Y-11647952D01*
X14095286Y-11638428D01*
X14104809Y-11619381D01*
X14104809Y-11581286D01*
X14095286Y-11562238D01*
X14085762Y-11552714D01*
X14066714Y-11543190D01*
X14276238Y-11524143D02*
X14276238Y-11657476D01*
X14228619Y-11447952D02*
X14181000Y-11590809D01*
X14304809Y-11590809D01*
X14371476Y-11457476D02*
X14371476Y-11495571D01*
X14447667Y-11457476D02*
X14447667Y-11495571D01*
X14742905Y-11733667D02*
X14733381Y-11724143D01*
X14714333Y-11695571D01*
X14704809Y-11676524D01*
X14695286Y-11647952D01*
X14685762Y-11600333D01*
X14685762Y-11562238D01*
X14695286Y-11514619D01*
X14704809Y-11486048D01*
X14714333Y-11467000D01*
X14733381Y-11438428D01*
X14742905Y-11428905D01*
X14923857Y-11657476D02*
X14809571Y-11657476D01*
X14866714Y-11657476D02*
X14866714Y-11457476D01*
X14847667Y-11486048D01*
X14828619Y-11505095D01*
X14809571Y-11514619D01*
X15161952Y-11657476D02*
X15161952Y-11457476D01*
X15247667Y-11657476D02*
X15247667Y-11552714D01*
X15238143Y-11533667D01*
X15219095Y-11524143D01*
X15190524Y-11524143D01*
X15171476Y-11533667D01*
X15161952Y-11543190D01*
X15371476Y-11657476D02*
X15352428Y-11647952D01*
X15342905Y-11638428D01*
X15333381Y-11619381D01*
X15333381Y-11562238D01*
X15342905Y-11543190D01*
X15352428Y-11533667D01*
X15371476Y-11524143D01*
X15400048Y-11524143D01*
X15419095Y-11533667D01*
X15428619Y-11543190D01*
X15438143Y-11562238D01*
X15438143Y-11619381D01*
X15428619Y-11638428D01*
X15419095Y-11647952D01*
X15400048Y-11657476D01*
X15371476Y-11657476D01*
X15552428Y-11657476D02*
X15533381Y-11647952D01*
X15523857Y-11628905D01*
X15523857Y-11457476D01*
X15704809Y-11647952D02*
X15685762Y-11657476D01*
X15647667Y-11657476D01*
X15628619Y-11647952D01*
X15619095Y-11628905D01*
X15619095Y-11552714D01*
X15628619Y-11533667D01*
X15647667Y-11524143D01*
X15685762Y-11524143D01*
X15704809Y-11533667D01*
X15714333Y-11552714D01*
X15714333Y-11571762D01*
X15619095Y-11590809D01*
X15781000Y-11733667D02*
X15790524Y-11724143D01*
X15809571Y-11695571D01*
X15819095Y-11676524D01*
X15828619Y-11647952D01*
X15838143Y-11600333D01*
X15838143Y-11562238D01*
X15828619Y-11514619D01*
X15819095Y-11486048D01*
X15809571Y-11467000D01*
X15790524Y-11438428D01*
X15781000Y-11428905D01*
X16142905Y-11733667D02*
X16133381Y-11724143D01*
X16114333Y-11695571D01*
X16104809Y-11676524D01*
X16095286Y-11647952D01*
X16085762Y-11600333D01*
X16085762Y-11562238D01*
X16095286Y-11514619D01*
X16104809Y-11486048D01*
X16114333Y-11467000D01*
X16133381Y-11438428D01*
X16142905Y-11428905D01*
X16219095Y-11524143D02*
X16219095Y-11657476D01*
X16219095Y-11543190D02*
X16228619Y-11533667D01*
X16247667Y-11524143D01*
X16276238Y-11524143D01*
X16295286Y-11533667D01*
X16304809Y-11552714D01*
X16304809Y-11657476D01*
X16428619Y-11657476D02*
X16409571Y-11647952D01*
X16400048Y-11638428D01*
X16390524Y-11619381D01*
X16390524Y-11562238D01*
X16400048Y-11543190D01*
X16409571Y-11533667D01*
X16428619Y-11524143D01*
X16457190Y-11524143D01*
X16476238Y-11533667D01*
X16485762Y-11543190D01*
X16495286Y-11562238D01*
X16495286Y-11619381D01*
X16485762Y-11638428D01*
X16476238Y-11647952D01*
X16457190Y-11657476D01*
X16428619Y-11657476D01*
X16552428Y-11524143D02*
X16628619Y-11524143D01*
X16581000Y-11457476D02*
X16581000Y-11628905D01*
X16590524Y-11647952D01*
X16609571Y-11657476D01*
X16628619Y-11657476D01*
X16847667Y-11524143D02*
X16847667Y-11724143D01*
X16847667Y-11533667D02*
X16866714Y-11524143D01*
X16904810Y-11524143D01*
X16923857Y-11533667D01*
X16933381Y-11543190D01*
X16942905Y-11562238D01*
X16942905Y-11619381D01*
X16933381Y-11638428D01*
X16923857Y-11647952D01*
X16904810Y-11657476D01*
X16866714Y-11657476D01*
X16847667Y-11647952D01*
X17057190Y-11657476D02*
X17038143Y-11647952D01*
X17028619Y-11628905D01*
X17028619Y-11457476D01*
X17219095Y-11657476D02*
X17219095Y-11552714D01*
X17209571Y-11533667D01*
X17190524Y-11524143D01*
X17152429Y-11524143D01*
X17133381Y-11533667D01*
X17219095Y-11647952D02*
X17200048Y-11657476D01*
X17152429Y-11657476D01*
X17133381Y-11647952D01*
X17123857Y-11628905D01*
X17123857Y-11609857D01*
X17133381Y-11590809D01*
X17152429Y-11581286D01*
X17200048Y-11581286D01*
X17219095Y-11571762D01*
X17285762Y-11524143D02*
X17361952Y-11524143D01*
X17314333Y-11457476D02*
X17314333Y-11628905D01*
X17323857Y-11647952D01*
X17342905Y-11657476D01*
X17361952Y-11657476D01*
X17504810Y-11647952D02*
X17485762Y-11657476D01*
X17447667Y-11657476D01*
X17428619Y-11647952D01*
X17419095Y-11628905D01*
X17419095Y-11552714D01*
X17428619Y-11533667D01*
X17447667Y-11524143D01*
X17485762Y-11524143D01*
X17504810Y-11533667D01*
X17514333Y-11552714D01*
X17514333Y-11571762D01*
X17419095Y-11590809D01*
X17685762Y-11657476D02*
X17685762Y-11457476D01*
X17685762Y-11647952D02*
X17666714Y-11657476D01*
X17628619Y-11657476D01*
X17609571Y-11647952D01*
X17600048Y-11638428D01*
X17590524Y-11619381D01*
X17590524Y-11562238D01*
X17600048Y-11543190D01*
X17609571Y-11533667D01*
X17628619Y-11524143D01*
X17666714Y-11524143D01*
X17685762Y-11533667D01*
X17761952Y-11733667D02*
X17771476Y-11724143D01*
X17790524Y-11695571D01*
X17800048Y-11676524D01*
X17809571Y-11647952D01*
X17819095Y-11600333D01*
X17819095Y-11562238D01*
X17809571Y-11514619D01*
X17800048Y-11486048D01*
X17790524Y-11467000D01*
X17771476Y-11438428D01*
X17761952Y-11428905D01*
M02*
